<?xml version="1.0" encoding="UTF-8"?>
<svg version="1.1" xmlns="http://www.w3.org/2000/svg" width="500" height="500">
<path d="M0 0 C0.69899414 0.13776855 1.39798828 0.27553711 2.11816406 0.41748047 C26.30268933 5.26222673 48.76263054 15.45201997 69.18359375 29.1328125 C71.03872798 30.36270732 72.93730541 31.52978132 74.875 32.625 C75.57625 33.07875 76.2775 33.5325 77 34 C77 34.66 77 35.32 77 36 C77.8353125 36.0928125 77.8353125 36.0928125 78.6875 36.1875 C81.94477526 37.33194806 83.6499098 39.52622084 86 42 C86.66 42.33 87.32 42.66 88 43 C88 43.66 88 44.32 88 45 C88.59167969 45.27585938 89.18335938 45.55171875 89.79296875 45.8359375 C96.57522254 49.41312623 104.56007797 56.68023391 107 64 C107.66 64 108.32 64 109 64 C110.7265625 65.8984375 110.7265625 65.8984375 112.625 68.375 C113.25664062 69.18710938 113.88828125 69.99921875 114.5390625 70.8359375 C116 73 116 73 116 75 C116.66 75 117.32 75 118 75 C120.62921733 78.45831712 122.75643928 82.28235601 125 86 C125.39316406 86.64275879 125.78632813 87.28551758 126.19140625 87.94775391 C132.14336814 97.69432473 137.44566009 107.52622625 142 118 C142.43441406 118.98355469 142.86882812 119.96710938 143.31640625 120.98046875 C145.23452082 125.50508048 146 127.9126914 146 133 C125.87 133 105.74 133 85 133 C82.36 128.38 79.72 123.76 77 119 C62.64115447 98.25944534 46.32271069 81.93926799 24 70 C23.35546875 69.63777344 22.7109375 69.27554688 22.046875 68.90234375 C-8.38957414 52.55929388 -45.27392351 51.03381803 -78.0625 60.09765625 C-86.93211188 62.82321407 -95.05783796 66.7352572 -103.22509766 71.07275391 C-104.75032765 71.86956594 -106.30090156 72.61752783 -107.85546875 73.35546875 C-137.20658662 87.78680507 -158.14741564 118.33624035 -169.18359375 148.203125 C-170.25185472 151.44531781 -171.14710614 154.69457872 -172 158 C-172.18191895 158.64694824 -172.36383789 159.29389648 -172.55126953 159.96044922 C-175.80142369 171.76595424 -176.37696828 183.3316273 -176.375 195.5 C-176.37681274 196.22770599 -176.37862549 196.95541199 -176.38049316 197.70516968 C-176.37010364 234.55317277 -161.16205815 269.22974684 -135.75 295.75 C-107.17753367 323.08912246 -71.15863939 336.13396959 -31.9375 335.3515625 C-11.51665954 334.57089781 7.26629799 328.46463934 25.21191406 318.94042969 C26.78189274 318.11471179 28.3701577 317.32395913 29.9609375 316.5390625 C59.13232846 301.73950052 80.42959644 271.80939972 91.21875 241.5859375 C93.71003536 233.8289808 95.3876144 225.98130873 97 218 C89.41 218 81.82 218 74 218 C73.443125 220.3925 72.88625 222.785 72.3125 225.25 C68.3200058 241.44816625 60.60020417 255.22439791 50.5625 268.4375 C50.13751221 268.99945068 49.71252441 269.56140137 49.2746582 270.14038086 C48.23454014 271.46884848 47.12315872 272.74095818 46 274 C45.34 274 44.68 274 44 274 C43.34 275.32 42.68 276.64 42 278 C41.34 278 40.68 278 40 278 C39.67 278.99 39.34 279.98 39 281 C36.90864273 282.80329153 34.83086935 284.47535202 32.625 286.125 C32.03460938 286.58003906 31.44421875 287.03507812 30.8359375 287.50390625 C28.24483788 289.4705742 26.10668599 290.964438 23 292 C22 291 22 291 21.87695217 288.87792873 C21.87787396 287.93493451 21.87879576 286.99194029 21.87974548 286.02037048 C21.87836799 284.94423713 21.87699049 283.86810377 21.87557125 282.75936031 C21.87916936 281.56380803 21.88276747 280.36825575 21.88647461 279.13647461 C21.88629381 277.23315416 21.88629381 277.23315416 21.88610935 275.29138279 C21.88588288 271.8479809 21.89169365 268.40461351 21.89871979 264.96121979 C21.90439974 261.73427931 21.90468209 258.5073404 21.90539551 255.28039551 C21.91065027 245.83275907 21.92461132 236.38512911 21.9375 226.9375 C21.958125 205.838125 21.97875 184.73875 22 163 C65.56 163 109.12 163 154 163 C163.9327907 212.66395352 150.76033218 263.68224135 124 306 C123.47615723 306.83402344 122.95231445 307.66804688 122.41259766 308.52734375 C121.88069824 309.35363281 121.34879883 310.17992187 120.80078125 311.03125 C120.31391846 311.78986328 119.82705566 312.54847656 119.32543945 313.33007812 C118.88804443 313.88115234 118.45064941 314.43222656 118 315 C117.34 315 116.68 315 116 315 C115.6596875 315.7734375 115.6596875 315.7734375 115.3125 316.5625 C113.51782382 319.89547005 111.50034985 323.14703671 109 326 C108.34 326 107.68 326 107 326 C106.72414063 326.59167969 106.44828125 327.18335938 106.1640625 327.79296875 C102.58687377 334.57522254 95.31976609 342.56007797 88 345 C88 345.66 88 346.32 88 347 C84.53846154 350 84.53846154 350 82 350 C82 350.66 82 351.32 82 352 C80.35 352.66 78.7 353.32 77 354 C77 354.66 77 355.32 77 356 C75.02652241 357.42762209 73.06956607 358.72589111 71 360 C69.90945313 360.68578125 68.81890625 361.3715625 67.6953125 362.078125 C28.65598911 385.98622444 -14.14868793 397.40878001 -60 393 C-61.21171875 392.88785156 -62.4234375 392.77570313 -63.671875 392.66015625 C-93.64139939 389.28376133 -122.25558264 377.56742562 -147.18359375 360.8671875 C-149.03872798 359.63729268 -150.93730541 358.47021868 -152.875 357.375 C-153.926875 356.694375 -153.926875 356.694375 -155 356 C-155 355.34 -155 354.68 -155 354 C-156.65 353.34 -158.3 352.68 -160 352 C-160 351.34 -160 350.68 -160 350 C-160.61875 349.690625 -161.2375 349.38125 -161.875 349.0625 C-163.25 348.375 -164.625 347.6875 -166 347 C-166 346.34 -166 345.68 -166 345 C-166.59167969 344.72414063 -167.18335938 344.44828125 -167.79296875 344.1640625 C-174.42954441 340.66370932 -179.25630761 334.66243123 -184 329 C-184.88751144 327.96310544 -185.77556866 326.92667788 -186.6640625 325.890625 C-187.5890991 324.802557 -188.51358 323.71401631 -189.4375 322.625 C-189.88714111 322.10083496 -190.33678223 321.57666992 -190.80004883 321.03662109 C-194 317.22895854 -194 317.22895854 -194 315 C-194.66 315 -195.32 315 -196 315 C-198.62893763 311.54205079 -200.7605895 307.71973257 -203 304 C-203.39316406 303.35192383 -203.78632813 302.70384766 -204.19140625 302.03613281 C-219.05136523 277.47527584 -228.23306089 253.3773081 -233 225 C-233.13132324 224.27329102 -233.26264648 223.54658203 -233.39794922 222.79785156 C-238.32046093 195.27873281 -235.53275892 164.53594256 -227 138 C-226.70391846 137.05229736 -226.70391846 137.05229736 -226.40185547 136.08544922 C-224.0359535 128.52529178 -221.48328685 121.1233776 -218 114 C-217.72816895 113.43732422 -217.45633789 112.87464844 -217.17626953 112.29492188 C-203.46462877 83.98608177 -203.46462877 83.98608177 -196 75 C-195.34 75 -194.68 75 -194 75 C-193.76925781 74.28714844 -193.53851563 73.57429688 -193.30078125 72.83984375 C-191.74349735 69.44000773 -189.75450351 67.27574959 -187.1875 64.5625 C-183.15118812 60.26824496 -183.15118812 60.26824496 -179.375 55.75 C-175.62876852 51.41225829 -171.51662258 46.83887419 -166 45 C-166 44.34 -166 43.68 -166 43 C-164.1015625 41.2734375 -164.1015625 41.2734375 -161.625 39.375 C-160.81289062 38.74335937 -160.00078125 38.11171875 -159.1640625 37.4609375 C-157 36 -157 36 -155 36 C-155 35.34 -155 34.68 -155 34 C-153.02652241 32.57237791 -151.06956607 31.27410889 -149 30 C-147.90945312 29.31421875 -146.81890625 28.6284375 -145.6953125 27.921875 C-137.33179598 22.79944092 -128.82332642 18.14763045 -119.96337891 13.94091797 C-118.10163878 13.04870876 -116.26044816 12.12255176 -114.41796875 11.19140625 C-95.02452706 1.73125455 -71.95512963 -2.70285541 -50.5 -3.6875 C-49.66742676 -3.72584961 -48.83485352 -3.76419922 -47.97705078 -3.80371094 C-31.77069131 -4.412542 -15.88113779 -3.25254424 0 0 Z " fill="#FDB352" transform="translate(289,55)"/>
<path d="M0 0 C0.86987549 0.13639893 1.73975098 0.27279785 2.63598633 0.41333008 C26.29919772 4.2644739 47.67105812 13.00552159 65.4375 29.75 C65.4375 30.41 65.4375 31.07 65.4375 31.75 C66.7575 32.41 68.0775 33.07 69.4375 33.75 C69.4375 34.41 69.4375 35.07 69.4375 35.75 C70.4275 36.08 71.4175 36.41 72.4375 36.75 C74.26811617 39.03034235 75.96070984 41.2919668 77.625 43.6875 C78.08841797 44.33396484 78.55183594 44.98042969 79.02929688 45.64648438 C82.4375 50.48020987 82.4375 50.48020987 82.4375 52.75 C71.89718357 53.73906253 61.47768733 53.8386199 50.90275574 53.73346901 C48.0245688 53.70638013 45.14646363 53.68879564 42.26818848 53.67399597 C34.09515017 53.63168532 25.92227352 53.58372148 17.74951172 53.50317383 C12.72128563 53.45430346 7.69327379 53.42556354 2.6648407 53.40942955 C0.76725537 53.39962552 -1.13030867 53.3825612 -3.02775574 53.35764503 C-17.10459338 53.17678482 -29.34307332 54.14062281 -41.71875 61.64453125 C-43.90778586 62.95702521 -46.15977779 63.89742115 -48.5625 64.75 C-48.5625 65.41 -48.5625 66.07 -48.5625 66.75 C-49.2225 66.75 -49.8825 66.75 -50.5625 66.75 C-50.5625 67.41 -50.5625 68.07 -50.5625 68.75 C-51.243125 69.245 -51.92375 69.74 -52.625 70.25 C-63.77272992 79.73742972 -68.50537183 93.62158319 -69.8515625 107.79296875 C-70.37380121 125.38291817 -64.48349386 139.98610758 -52.5625 152.75 C-51.19148121 153.98040093 -49.80891695 155.19801063 -48.41748047 156.40527344 C-47.69591766 157.03254333 -46.97435486 157.65981323 -46.23092651 158.30609131 C-45.68034576 158.78258118 -45.12976501 159.25907104 -44.5625 159.75 C-44.55370064 158.68670471 -44.55370064 158.68670471 -44.54472351 157.60192871 C-44.48661452 150.89364739 -44.41443502 144.18567842 -44.32678509 137.47771454 C-44.28221958 134.02976355 -44.24293413 130.58192696 -44.21606445 127.13378906 C-44.18487463 123.16185767 -44.13009123 119.19041378 -44.07421875 115.21875 C-44.06782883 113.99136108 -44.0614389 112.76397217 -44.05485535 111.49938965 C-43.9188393 103.52430286 -43.39656821 95.83772335 -37.5625 89.75 C-36.9025 89.75 -36.2425 89.75 -35.5625 89.75 C-35.0675 88.265 -35.0675 88.265 -34.5625 86.75 C-25.5625 82.75 -25.5625 82.75 16.4375 82.75 C16.4375 129.94 16.4375 177.13 16.4375 225.75 C-10.28800193 234.65850064 -39.57317202 231.11463599 -64.69726562 218.83129883 C-74.79260654 213.70587989 -84.32209485 207.57599406 -92.5625 199.75 C-92.5625 199.09 -92.5625 198.43 -92.5625 197.75 C-93.8825 197.09 -95.2025 196.43 -96.5625 195.75 C-96.5625 195.09 -96.5625 194.43 -96.5625 193.75 C-97.5525 193.42 -98.5425 193.09 -99.5625 192.75 C-102.80836305 188.94152069 -105.65034415 184.81697627 -108.5625 180.75 C-109.10390625 180.03585937 -109.6453125 179.32171875 -110.203125 178.5859375 C-118.90366891 166.58683574 -123.63292393 152.12034158 -126.5625 137.75 C-126.78679687 136.79609375 -127.01109375 135.8421875 -127.2421875 134.859375 C-133.15872943 106.49239313 -125.91536157 76.08026708 -110.73828125 51.8359375 C-109.07385604 49.41971574 -107.34772251 47.07802665 -105.5625 44.75 C-104.92828125 43.89019531 -104.2940625 43.03039062 -103.640625 42.14453125 C-100.11393748 37.44471007 -100.11393748 37.44471007 -98.5625 35.75 C-97.9025 35.75 -97.2425 35.75 -96.5625 35.75 C-95.9025 34.43 -95.2425 33.11 -94.5625 31.75 C-93.9025 31.75 -93.2425 31.75 -92.5625 31.75 C-92.2325 30.76 -91.9025 29.77 -91.5625 28.75 C-89.4755022 26.87758085 -87.40190651 25.14625235 -85.1875 23.4375 C-84.55336182 22.94548096 -83.91922363 22.45346191 -83.26586914 21.9465332 C-77.97703159 17.92121776 -72.55152656 14.6427168 -66.5625 11.75 C-65.56992188 11.23824219 -64.57734375 10.72648438 -63.5546875 10.19921875 C-52.07313745 4.51486412 -40.16696808 2.06403975 -27.625 0 C-26.85655762 -0.12785889 -26.08811523 -0.25571777 -25.29638672 -0.38745117 C-16.67394391 -1.71032865 -8.59632214 -1.34802683 0 0 Z " fill="#FDB052" transform="translate(263.5625,135.25)"/>
<path d="M0 0 C43.56 0 87.12 0 132 0 C137.94531089 29.72655445 135.3678042 59.93523328 127 89 C126.67 89 126.34 89 126 89 C125.65545215 82.88746597 126.09297094 78.15359975 128.26953125 72.44140625 C129.4413296 68.52496792 129.57100521 64.56911712 129.7890625 60.50390625 C130 58 130 58 131 56 C131.1692078 53.30089274 131.28281673 50.62392204 131.3515625 47.921875 C131.37471527 47.11768127 131.39786804 46.31348755 131.42172241 45.48492432 C131.46938852 43.78021593 131.51461934 42.07543799 131.55761719 40.37060547 C131.62437951 37.7741317 131.70229533 35.17815938 131.78125 32.58203125 C131.82620041 30.92449746 131.87049224 29.26694565 131.9140625 27.609375 C131.93796051 26.83728699 131.96185852 26.06519897 131.98648071 25.26971436 C132.05835339 22.14293115 132.05325584 19.30018839 131.50537109 16.21191406 C130.71680475 11.20013685 131 6.07343549 131 1 C88.43 1 45.86 1 2 1 C2 42.25 2 83.5 2 126 C2.66 126 3.32 126 4 126 C4.33 124.68 4.66 123.36 5 122 C6.32 122 7.64 122 9 122 C8.67 120.68 8.34 119.36 8 118 C10.31 118 12.62 118 15 118 C11.0299782 122.21814817 6.69159716 125.61227103 2 129 C1.34 128.67 0.68 128.34 0 128 C0 85.76 0 43.52 0 0 Z " fill="#F6D397" transform="translate(311,218)"/>
<path d="M0 0 C4.89533581 4.31148842 7.77980253 9.33693474 10.9375 15 C11.46601563 15.93755127 11.99453125 16.87510254 12.5390625 17.84106445 C16.39637816 24.75268362 19.92579099 31.70129848 23 39 C23.40992188 39.93457031 23.81984375 40.86914062 24.2421875 41.83203125 C26.18011866 46.39619326 27 48.87544545 27 54 C6.87 54 -13.26 54 -34 54 C-42 40 -42 40 -45 34 C-44.34 34 -43.68 34 -43 34 C-42.8453125 34.9590625 -42.8453125 34.9590625 -42.6875 35.9375 C-42.460625 36.618125 -42.23375 37.29875 -42 38 C-41.01 38.33 -40.02 38.66 -39 39 C-37.17578125 41.65234375 -37.17578125 41.65234375 -35.3125 44.9375 C-34.68988281 46.01902344 -34.06726563 47.10054687 -33.42578125 48.21484375 C-32 51 -32 51 -32 53 C-3.785 52.505 -3.785 52.505 25 52 C22.88410886 46.35762363 20.80420608 41.51339651 17.98828125 36.296875 C17 34 17 34 17 30 C16.34 30 15.68 30 15 30 C12.98733308 26.98099963 11.31131846 24.36201827 10.5 20.8125 C10.2525 19.9153125 10.2525 19.9153125 10 19 C9.34 18.67 8.68 18.34 8 18 C8.33 17.34 8.66 16.68 9 16 C8.34 16 7.68 16 7 16 C6.71125 15.030625 6.4225 14.06125 6.125 13.0625 C5.35785318 9.89335797 5.35785318 9.89335797 3 9 C3 8.01 3 7.02 3 6 C2.34 6 1.68 6 1 6 C0.505 3.03 0.505 3.03 0 0 Z " fill="#F9E288" transform="translate(408,134)"/>
<path d="M0 0 C14.19 0 28.38 0 43 0 C48.94531089 29.72655445 46.3678042 59.93523328 38 89 C37.67 89 37.34 89 37 89 C36.65545215 82.88746597 37.09297094 78.15359975 39.26953125 72.44140625 C40.4413296 68.52496792 40.57100521 64.56911712 40.7890625 60.50390625 C41 58 41 58 42 56 C42.1692078 53.30089274 42.28281673 50.62392204 42.3515625 47.921875 C42.37471527 47.11768127 42.39786804 46.31348755 42.42172241 45.48492432 C42.46938852 43.78021593 42.51461934 42.07543799 42.55761719 40.37060547 C42.62437951 37.7741317 42.70229533 35.17815938 42.78125 32.58203125 C42.82620041 30.92449746 42.87049224 29.26694565 42.9140625 27.609375 C42.93796051 26.83728699 42.96185852 26.06519897 42.98648071 25.26971436 C43.05835339 22.14293115 43.05325584 19.30018839 42.50537109 16.21191406 C41.71680475 11.20013685 42 6.07343549 42 1 C28.14 1 14.28 1 0 1 C0 0.67 0 0.34 0 0 Z " fill="#F7DE89" transform="translate(400,218)"/>
<path d="M0 0 C0.69899414 0.13776855 1.39798828 0.27553711 2.11816406 0.41748047 C10.76029563 2.14870877 19.02903464 4.54687877 27.3125 7.5625 C28.11937256 7.85543945 28.92624512 8.14837891 29.75756836 8.45019531 C33.82335575 9.98595744 36.4182909 11.31371817 40 14 C35.71 13.67 31.42 13.34 27 13 C27 12.01 27 11.02 27 10 C26.38253906 9.89042969 25.76507813 9.78085938 25.12890625 9.66796875 C19.90250523 8.68951011 14.99231526 7.44363041 10.0078125 5.5859375 C7.70862165 4.81323771 7.70862165 4.81323771 4 5 C4 4.34 4 3.68 4 3 C-1.94 3 -7.88 3 -14 3 C-14 2.01 -14 1.02 -14 0 C-14.73943848 0.1841748 -15.47887695 0.36834961 -16.24072266 0.55810547 C-19.05147309 1.00824335 -20.45353226 0.82305514 -23.1484375 0.0703125 C-31.19249581 -1.70564843 -39.43427335 -1.21013601 -47.625 -1.125 C-49.31379677 -1.11494957 -51.00259934 -1.10582737 -52.69140625 -1.09765625 C-56.79441594 -1.07580739 -60.89714282 -1.04139154 -65 -1 C-65 -1.33 -65 -1.66 -65 -2 C-44.40470389 -6.88982886 -20.48798023 -4.19605087 0 0 Z " fill="#F9DD87" transform="translate(289,55)"/>
<path d="M0 0 C0.495 0.99 0.495 0.99 1 2 C3.01669827 3.13350534 3.01669827 3.13350534 5 4 C5 4.66 5 5.32 5 6 C5.99 6.33 6.98 6.66 8 7 C9.83061617 9.28034235 11.52320984 11.5419668 13.1875 13.9375 C13.65091797 14.58396484 14.11433594 15.23042969 14.59179688 15.89648438 C18 20.73020987 18 20.73020987 18 23 C7.45968357 23.98906253 -2.95981267 24.0886199 -13.53474426 23.98346901 C-16.4129312 23.95638013 -19.29103637 23.93879564 -22.16931152 23.92399597 C-30.34234983 23.88168532 -38.51522648 23.83372148 -46.68798828 23.75317383 C-51.71621437 23.70430346 -56.74422621 23.67556354 -61.7726593 23.65942955 C-63.67024463 23.64962552 -65.56780867 23.6325612 -67.46525574 23.60764503 C-78.75299467 23.46261936 -88.28026048 24.1016482 -99 28 C-99.99 28.33 -100.98 28.66 -102 29 C-102.33 28.01 -102.66 27.02 -103 26 C-90.625 21.875 -90.625 21.875 -86.6530304 21.87974548 C-85.76542023 21.87837082 -84.87781006 21.87699615 -83.96330261 21.87557983 C-82.99226089 21.87917511 -82.02121918 21.88277039 -81.02075195 21.88647461 C-79.48390747 21.88625557 -79.48390747 21.88625557 -77.91601562 21.8860321 C-74.5234161 21.88672977 -71.13087121 21.89451538 -67.73828125 21.90234375 C-65.3884433 21.90420845 -63.03860496 21.90563211 -60.68876648 21.90663147 C-54.49916514 21.91045257 -48.3095872 21.9202794 -42.11999512 21.93133545 C-35.80591142 21.94155831 -29.49182396 21.94613097 -23.17773438 21.95117188 C-10.78514596 21.96190201 1.60742508 21.97897357 14 22 C14 21.01 14 20.02 14 19 C13.38253906 18.76410156 12.76507813 18.52820313 12.12890625 18.28515625 C9.43839583 16.66097656 9.01662364 15.34786374 7.9375 12.4375 C7.09537019 10.03162256 7.09537019 10.03162256 6 8 C5.01 7.67 4.02 7.34 3 7 C1.25372522 4.38058783 0.61277612 2.96175123 0 0 Z " fill="#F2C573" transform="translate(328,165)"/>
<path d="M0 0 C2.16389095 -0.00965915 4.32681184 -0.04069725 6.49047852 -0.07226562 C13.42085208 -0.12514523 19.69585514 0.13066918 26.30322266 2.47412109 C29.82916291 3.70363554 33.45437931 4.29038308 37.12524414 4.92773438 C37.84325195 5.05728516 38.56125977 5.18683594 39.30102539 5.3203125 C41.03317971 5.63210028 42.7665806 5.9369508 44.50024414 6.24023438 C44.50024414 7.23023437 44.50024414 8.22023438 44.50024414 9.24023438 C43.91500977 9.05847656 43.32977539 8.87671875 42.72680664 8.68945312 C17.64332868 1.34519156 -8.1441107 1.016421 -33.49975586 7.24023438 C-34.81871079 7.55166738 -36.13771713 7.86288278 -37.45678711 8.17382812 C-40.1487782 8.82880617 -42.82743651 9.50991108 -45.49975586 10.24023438 C-45.49975586 9.58023438 -45.49975586 8.92023438 -45.49975586 8.24023438 C-44.17975586 8.24023438 -42.85975586 8.24023438 -41.49975586 8.24023438 C-41.49975586 7.58023438 -41.49975586 6.92023438 -41.49975586 6.24023438 C-37.82946038 4.79143353 -34.46719183 4.06812976 -30.56225586 3.74023438 C-26.3322412 3.38455747 -22.5616892 2.5145664 -18.49975586 1.24023438 C-12.41938587 -0.2434576 -6.2189212 0.01676447 0 0 Z " fill="#F6CE7A" transform="translate(248.499755859375,106.759765625)"/>
<path d="M0 0 C0.33 0.66 0.66 1.32 1 2 C3.3260857 2.38063221 5.66055264 2.71269945 8 3 C8.66 3.33 9.32 3.66 10 4 C12.2072923 4.07092842 14.41667452 4.08415025 16.625 4.0625 C18.40777344 4.04896484 18.40777344 4.04896484 20.2265625 4.03515625 C21.59941406 4.01775391 21.59941406 4.01775391 23 4 C23 4.66 23 5.32 23 6 C23.99 5.67 24.98 5.34 26 5 C26 5.66 26 6.32 26 7 C35.24 7 44.48 7 54 7 C54.33 6.01 54.66 5.02 55 4 C58.28696233 3.20046862 59.71023192 2.90341064 63 4 C65.73865287 4.07051114 68.45027588 4.09357765 71.1875 4.0625 C72.31188477 4.05573242 72.31188477 4.05573242 73.45898438 4.04882812 C75.30602383 4.03706354 77.15302213 4.01912865 79 4 C63.66754453 12.89431276 36.06798937 9.64676078 19 8 C17.06060547 7.814375 17.06060547 7.814375 15.08203125 7.625 C6.69942677 6.66796463 -1.034495 4.76710629 -9 2 C-5.78360346 0.25434889 -3.67986596 -0.204437 0 0 Z " fill="#F3AC78" transform="translate(210,440)"/>
<path d="M0 0 C1.32 0.33 2.64 0.66 4 1 C4 1.66 4 2.32 4 3 C4.556875 3.061875 5.11375 3.12375 5.6875 3.1875 C8.94477526 4.33194806 10.6499098 6.52622084 13 9 C13.66 9.33 14.32 9.66 15 10 C15 10.66 15 11.32 15 12 C15.59167969 12.27585937 16.18335938 12.55171875 16.79296875 12.8359375 C23.57522254 16.41312623 31.56007797 23.68023391 34 31 C34.66 31 35.32 31 36 31 C37.7265625 32.8984375 37.7265625 32.8984375 39.625 35.375 C40.25664062 36.18710938 40.88828125 36.99921875 41.5390625 37.8359375 C43 40 43 40 43 42 C43.66 42 44.32 42 45 42 C45.495 43.98 45.495 43.98 46 46 C44.68 46 43.36 46 42 46 C39 40.25 39 40.25 39 38 C37.02 38.495 37.02 38.495 35 39 C34 36 34 36 35 33 C34.34 33 33.68 33 33 33 C31.44921875 31.42578125 31.44921875 31.42578125 29.6875 29.3125 C26.07161223 25.06027587 22.22305368 21.16869574 18.1875 17.3125 C16 15 16 15 16 13 C15.01 13.33 14.02 13.66 13 14 C12.67 13.34 12.34 12.68 12 12 C10.68 12 9.36 12 8 12 C8.33 10.68 8.66 9.36 9 8 C8.030625 7.7525 7.06125 7.505 6.0625 7.25 C5.051875 6.8375 4.04125 6.425 3 6 C2.125 3.875 2.125 3.875 2 2 C1.34 2 0.68 2 0 2 C0 1.34 0 0.68 0 0 Z " fill="#F9E487" transform="translate(362,88)"/>
<path d="M0 0 C0.33 0 0.66 0 1 0 C1.14563011 4.28253222 1.2878544 8.56516165 1.42724609 12.84790039 C1.4748674 14.29747388 1.52333679 15.74701982 1.57275391 17.1965332 C1.64462297 19.30933695 1.71342619 21.42221903 1.78125 23.53515625 C1.80493652 24.23605377 1.82862305 24.93695129 1.85302734 25.65908813 C1.96099108 29.18794987 2.00530611 32.70004022 1.92578125 36.22998047 C1.91317261 36.90604843 1.90056396 37.58211639 1.88757324 38.27867126 C1.84637834 40.12809575 1.78614136 41.97706815 1.72460938 43.82592773 C2.03168761 47.3652222 3.13700858 49.04278549 5 52 C4.1875 55.3125 4.1875 55.3125 3 58 C-4.29751381 50.70248619 -2.29121225 29.69071324 -2.3125 20.125 C-2.31781738 18.93148926 -2.32313477 17.73797852 -2.32861328 16.50830078 C-2.28107673 10.63628568 -2.0245033 5.53310462 0 0 Z " fill="#F4AB74" transform="translate(56,229)"/>
<path d="M0 0 C1.04644 3.43057909 1.12079519 6.56876873 1.11352539 10.14550781 C1.11344986 11.38649231 1.11337433 12.62747681 1.11329651 13.90606689 C1.10819031 15.25508667 1.10297432 16.60410604 1.09765625 17.953125 C1.09579024 19.33746286 1.0943672 20.72180138 1.09336853 22.10614014 C1.08955773 25.74261308 1.07973975 29.37904582 1.06866455 33.01550293 C1.0584195 36.72907976 1.05386429 40.4426631 1.04882812 44.15625 C1.03811616 51.43751829 1.02105704 58.7187535 1 66 C-0.485 66.495 -0.485 66.495 -2 67 C-2.66 66.67 -3.32 66.34 -4 66 C-3.505 65.01 -3.505 65.01 -3 64 C-2.89053913 62.18369028 -2.84358871 60.36346937 -2.82641602 58.54394531 C-2.81292618 57.40225891 -2.79943634 56.26057251 -2.78553772 55.08428955 C-2.77509933 53.84475525 -2.76466095 52.60522095 -2.75390625 51.328125 C-2.72096269 48.71874671 -2.68775113 46.10937179 -2.65429688 43.5 C-2.60585471 39.37439148 -2.56208515 35.24875616 -2.52319336 31.12304688 C-2.4851663 27.14959613 -2.43190195 23.17640461 -2.37890625 19.203125 C-2.3704921 17.97168762 -2.36207794 16.74025024 -2.35340881 15.47149658 C-2.33676682 14.31720154 -2.32012482 13.16290649 -2.30297852 11.97363281 C-2.29267105 10.96262512 -2.28236359 9.95161743 -2.27174377 8.90997314 C-1.97212421 5.70149165 -1.12442576 3.0104775 0 0 Z " fill="#F4C78E" transform="translate(222,231)"/>
<path d="M0 0 C0.66 0.99 1.32 1.98 2 3 C1.125 6.6875 1.125 6.6875 0 10 C0.99 10.33 1.98 10.66 3 11 C1 14 1 14 -1 15 C-3.75324413 22.56417599 -3.27702502 31.00968989 -3.20581055 38.9440918 C-3.18726404 41.08979883 -3.1853034 43.23507962 -3.18554688 45.38085938 C-3.79920569 51.67123157 -3.79920569 51.67123157 -2 57 C-1.76472227 59.34987262 -1.58613583 61.70556039 -1.4375 64.0625 C-1.35371094 65.35285156 -1.26992187 66.64320313 -1.18359375 67.97265625 C-1.12300781 68.97167969 -1.06242188 69.97070312 -1 71 C-10.58787782 56.61818326 -7.0215927 29.93010804 -3.8671875 13.8984375 C-2.81710302 9.17778747 -1.61532551 4.5595713 0 0 Z " fill="#F5BC84" transform="translate(141,211)"/>
<path d="M0 0 C0.99 0.804375 1.98 1.60875 3 2.4375 C15.72831774 11.93892029 30.90083086 19.19149537 46 24 C45.01 24.66 44.02 25.32 43 26 C43 25.34 43 24.68 43 24 C41.7315625 24.061875 41.7315625 24.061875 40.4375 24.125 C33.38192532 23.86843365 27.28408732 20.97361618 21 18 C20.27941406 17.67128906 19.55882812 17.34257812 18.81640625 17.00390625 C17 16 17 16 15.625 13.9375 C13.37340892 11.25291063 11.39109429 11.3014306 8 11 C8 10.34 8 9.68 8 9 C7.05125 8.62875 6.1025 8.2575 5.125 7.875 C2 6 2 6 0.625 2.8125 C0.41875 1.884375 0.2125 0.95625 0 0 Z " fill="#F3A36A" transform="translate(165,361)"/>
<path d="M0 0 C0.66 0 1.32 0 2 0 C2.103125 0.639375 2.20625 1.27875 2.3125 1.9375 C2.539375 2.618125 2.76625 3.29875 3 4 C3.99 4.33 4.98 4.66 6 5 C7.82421875 7.65234375 7.82421875 7.65234375 9.6875 10.9375 C10.31011719 12.01902344 10.93273437 13.10054687 11.57421875 14.21484375 C13 17 13 17 13 19 C39.73 18.505 39.73 18.505 67 18 C63.13947196 19.93026402 61.86714936 20.24692791 57.77246094 20.22705078 C56.73168396 20.22689972 55.69090698 20.22674866 54.61859131 20.22659302 C52.94340424 20.21110916 52.94340424 20.21110916 51.234375 20.1953125 C50.08584045 20.1924826 48.93730591 20.18965271 47.75396729 20.18673706 C44.08587219 20.17554263 40.4180213 20.15043904 36.75 20.125 C34.26302436 20.11496926 31.77604489 20.10584358 29.2890625 20.09765625 C23.19262502 20.07560568 17.09632996 20.04213525 11 20 C9.72710095 17.79283537 8.4566395 15.58432515 7.1875 13.375 C6.83107422 12.75753906 6.47464844 12.14007813 6.10742188 11.50390625 C3.94086828 7.72734494 1.9095701 3.91552228 0 0 Z " fill="#F8D675" transform="translate(363,168)"/>
<path d="M0 0 C0.66 0.33 1.32 0.66 2 1 C-12.4 11 -12.4 11 -18 11 C-18.226875 11.556875 -18.45375 12.11375 -18.6875 12.6875 C-21.45168643 17.55773323 -24.81477184 20.1275565 -30 22 C-30.33 22.66 -30.66 23.32 -31 24 C-31.99 24 -32.98 24 -34 24 C-34 24.99 -34 25.98 -34 27 C-34.99 27 -35.98 27 -37 27 C-36.34 25.68 -35.68 24.36 -35 23 C-34.34 23 -33.68 23 -33 23 C-32.67 22.01 -32.34 21.02 -32 20 C-29.91306414 18.12763642 -27.83911573 16.39649977 -25.625 14.6875 C-24.9952124 14.19765625 -24.3654248 13.7078125 -23.71655273 13.203125 C-18.44186008 9.18126353 -12.99206038 5.86028772 -7 3 C-6.28585938 2.65066406 -5.57171875 2.30132812 -4.8359375 1.94140625 C-2.9375 1.0625 -2.9375 1.0625 0 0 Z " fill="#F6C57C" transform="translate(204,144)"/>
<path d="M0 0 C0.83789062 0.12632812 1.67578125 0.25265625 2.5390625 0.3828125 C8.08617337 1.24149839 13.53208285 2.35723695 19 3.625 C19 3.955 19 4.285 19 4.625 C16.52039864 4.48475781 14.04147598 4.3380815 11.5625 4.1875 C10.85544922 4.14818359 10.14839844 4.10886719 9.41992188 4.06835938 C4.11328125 3.73828125 4.11328125 3.73828125 3 2.625 C-0.02977804 2.53628727 -3.03667022 2.5098065 -6.06640625 2.52734375 C-6.97502914 2.5287587 -7.88365204 2.53017365 -8.81980896 2.53163147 C-11.73407221 2.53724807 -14.64825981 2.54980335 -17.5625 2.5625 C-19.53320202 2.56751286 -21.50390524 2.57207614 -23.47460938 2.57617188 C-28.31643559 2.58722289 -33.15820495 2.60449862 -38 2.625 C-34.27372054 0.62592958 -31.0240916 0.04093837 -26.8125 -0.5 C-25.56082031 -0.66757813 -24.30914062 -0.83515625 -23.01953125 -1.0078125 C-15.17702766 -1.82833662 -7.76572409 -1.24251585 0 0 Z " fill="#F8D388" transform="translate(264,135.375)"/>
<path d="M0 0 C12.53333235 0.91151508 24.55371975 4.26867784 36.3125 8.5625 C37.11864746 8.85527832 37.92479492 9.14805664 38.75537109 9.44970703 C42.82228998 10.98529117 45.41755592 12.31316694 49 15 C44.71 14.67 40.42 14.34 36 14 C36 13.01 36 12.02 36 11 C35.38253906 10.89042969 34.76507813 10.78085938 34.12890625 10.66796875 C28.90250523 9.68951011 23.99231526 8.44363041 19.0078125 6.5859375 C16.70862165 5.81323771 16.70862165 5.81323771 13 6 C13 5.34 13 4.68 13 4 C12.14535156 3.87882812 11.29070312 3.75765625 10.41015625 3.6328125 C8.75306641 3.38144531 8.75306641 3.38144531 7.0625 3.125 C5.40927734 2.88136719 5.40927734 2.88136719 3.72265625 2.6328125 C2.82417969 2.42398438 1.92570312 2.21515625 1 2 C0.67 1.34 0.34 0.68 0 0 Z " fill="#F9E182" transform="translate(280,54)"/>
<path d="M0 0 C0.33 0 0.66 0 1 0 C1.10061885 5.63349486 1.17227273 11.26644078 1.21972656 16.90063477 C1.23955616 18.80795425 1.26662835 20.71521541 1.30175781 22.62231445 C1.54103875 35.96926464 0.32557912 48.07087395 -3 61 C-3.37804175 62.51258617 -3.75535053 64.02535578 -4.13183594 65.53833008 C-4.41833008 66.68068115 -4.70482422 67.82303223 -5 69 C-5.33 69 -5.66 69 -6 69 C-6.34454785 62.88746597 -5.90702906 58.15359975 -3.73046875 52.44140625 C-2.5586704 48.52496792 -2.42899479 44.56911712 -2.2109375 40.50390625 C-2 38 -2 38 -1 36 C-0.84323225 33.30344554 -0.74163685 30.62870023 -0.68359375 27.9296875 C-0.66281265 27.13345978 -0.64203156 26.33723206 -0.62062073 25.51687622 C-0.55515851 22.96967315 -0.49625585 20.42236575 -0.4375 17.875 C-0.3943116 16.14972873 -0.35069721 14.42446807 -0.30664062 12.69921875 C-0.19948055 8.46625315 -0.09820377 4.23318247 0 0 Z " fill="#F8D376" transform="translate(443,238)"/>
<path d="M0 0 C3.6064914 0.5811276 6.38422926 1.53846148 9.58203125 3.29296875 C10.43216797 3.75896484 11.28230469 4.22496094 12.15820312 4.70507812 C13.03412109 5.19427734 13.91003906 5.68347656 14.8125 6.1875 C15.67681641 6.65736328 16.54113281 7.12722656 17.43164062 7.61132812 C22.97064973 10.67554977 28.04801235 14.05734574 33 18 C29.25 19.125 29.25 19.125 27 18 C27 17.34 27 16.68 27 16 C25.88625 15.566875 25.88625 15.566875 24.75 15.125 C22.43260203 14.17697356 20.22082885 13.15154089 18 12 C18 11.34 18 10.68 18 10 C15.69 9.67 13.38 9.34 11 9 C10.67 8.01 10.34 7.02 10 6 C8.68 6 7.36 6 6 6 C6 5.34 6 4.68 6 4 C4.68 3.67 3.36 3.34 2 3 C2 2.34 2 1.68 2 1 C1.34 0.67 0.68 0.34 0 0 Z " fill="#FAE592" transform="translate(329,69)"/>
<path d="M0 0 C0.33 0.66 0.66 1.32 1 2 C3.01669827 3.13350534 3.01669827 3.13350534 5 4 C5 4.66 5 5.32 5 6 C5.99 6.33 6.98 6.66 8 7 C9.83061617 9.28034235 11.52320984 11.5419668 13.1875 13.9375 C13.65091797 14.58396484 14.11433594 15.23042969 14.59179688 15.89648438 C18 20.73020987 18 20.73020987 18 23 C15.70954632 23.22127098 13.41755236 23.4266504 11.125 23.625 C9.21074219 23.79902344 9.21074219 23.79902344 7.2578125 23.9765625 C6.18273437 23.98429687 5.10765625 23.99203125 4 24 C3.34 23.34 2.68 22.68 2 22 C5.96 22 9.92 22 14 22 C14 21.01 14 20.02 14 19 C13.38253906 18.76410156 12.76507813 18.52820313 12.12890625 18.28515625 C9.43839583 16.66097656 9.01662364 15.34786374 7.9375 12.4375 C7.09537019 10.03162256 7.09537019 10.03162256 6 8 C5.01 7.67 4.02 7.34 3 7 C1.25372522 4.38058783 0.61277612 2.96175123 0 0 Z " fill="#F8D88F" transform="translate(328,165)"/>
<path d="M0 0 C0.98120464 3.05263664 0.98120464 4.94736336 0 8 C-1.65 8.33 -3.3 8.66 -5 9 C-4.67 10.98 -4.34 12.96 -4 15 C-4.61875 15.04125 -5.2375 15.0825 -5.875 15.125 C-6.57625 15.41375 -7.2775 15.7025 -8 16 C-8.72433347 17.97984481 -9.37743972 19.98583438 -10 22 C-11.48543586 24.78581742 -13.03778984 27.52208076 -15 30 C-15.66 30 -16.32 30 -17 30 C-15.41910832 24.28089187 -12.60793177 19.51240892 -9.625 14.4375 C-9.14289063 13.60025391 -8.66078125 12.76300781 -8.1640625 11.90039062 C-5.70011734 7.67218039 -3.20971592 3.71931537 0 0 Z " fill="#F5B974" transform="translate(91,134)"/>
<path d="M0 0 C5.92418655 1.28324131 10.93327796 3.16915627 16.3125 5.9375 C17.01439453 6.28490234 17.71628906 6.63230469 18.43945312 6.99023438 C21.80931727 8.6960474 24.40391419 10.2088984 27 13 C25.41590006 12.88512252 23.83271037 12.75765492 22.25 12.625 C20.92742187 12.52058594 20.92742187 12.52058594 19.578125 12.4140625 C15.9683747 11.83431472 13.7599673 10.84440811 11.3125 8.125 C7.99603912 5.07744135 4.14477679 3.6649958 0 2 C0 1.34 0 0.68 0 0 Z " fill="#F7D887" transform="translate(284,140)"/>
<path d="M0 0 C0.66 0.33 1.32 0.66 2 1 C-0.292985 8.95800678 -3.94899487 15.81917721 -8 23 C-8.33 23 -8.66 23 -9 23 C-9.22174933 21.54364629 -9.42698698 20.08477044 -9.625 18.625 C-9.74101562 17.81289063 -9.85703125 17.00078125 -9.9765625 16.1640625 C-9.98429687 15.44992187 -9.99203125 14.73578125 -10 14 C-9.34 13.34 -8.68 12.68 -8 12 C-7.731875 11.34 -7.46375 10.68 -7.1875 10 C-6 8 -6 8 -3.4375 7.125 C-2.2309375 6.568125 -2.2309375 6.568125 -1 6 C-0.10169161 2.94727535 -0.10169161 2.94727535 0 0 Z " fill="#F8C153" transform="translate(426,330)"/>
<path d="M0 0 C0 0.66 0 1.32 0 2 C-2.64 2.66 -5.28 3.32 -8 4 C-8 4.66 -8 5.32 -8 6 C-9.15628906 6.41572266 -9.15628906 6.41572266 -10.3359375 6.83984375 C-11.33882813 7.20207031 -12.34171875 7.56429688 -13.375 7.9375 C-14.37273437 8.29714844 -15.37046875 8.65679687 -16.3984375 9.02734375 C-18.93504165 9.92349292 -18.93504165 9.92349292 -21 11 C-23.71760108 11.07181821 -26.40859388 11.09299506 -29.125 11.0625 C-29.87910156 11.05798828 -30.63320313 11.05347656 -31.41015625 11.04882812 C-33.27347127 11.03703499 -35.13674555 11.01909942 -37 11 C-37 10.67 -37 10.34 -37 10 C-36.09121094 9.84144531 -35.18242187 9.68289063 -34.24609375 9.51953125 C-23.85757877 7.59099668 -13.99463397 4.87383986 -4.1953125 0.84765625 C-2 0 -2 0 0 0 Z " fill="#F4B173" transform="translate(307,379)"/>
<path d="M0 0 C-0.53661027 9.23339738 -2.06952252 18.20856755 -5 27 C-5.99 27.33 -6.98 27.66 -8 28 C-7.37571782 25.33316351 -6.75059174 22.66652933 -6.125 20 C-5.95097656 19.25621094 -5.77695312 18.51242187 -5.59765625 17.74609375 C-5.42363281 17.00488281 -5.24960937 16.26367188 -5.0703125 15.5 C-4.91320801 14.8296875 -4.75610352 14.159375 -4.59423828 13.46875 C-3.75290473 9.97344808 -2.87194771 6.48779083 -2 3 C-8.27 2.67 -14.54 2.34 -21 2 C-21 1.67 -21 1.34 -21 1 C-18.06255476 0.83231709 -15.12505096 0.66581142 -12.1875 0.5 C-11.35412109 0.45230469 -10.52074219 0.40460938 -9.66210938 0.35546875 C-8.85966797 0.31035156 -8.05722656 0.26523437 -7.23046875 0.21875 C-6.49207764 0.17685547 -5.75368652 0.13496094 -4.99291992 0.09179688 C-3.33009506 0.01520467 -1.6645879 0 0 0 Z " fill="#FBE99F" transform="translate(388,270)"/>
<path d="M0 0 C0.99 0.66 1.98 1.32 3 2 C3 2.99 3 3.98 3 5 C4.32 5.33 5.64 5.66 7 6 C7 7.32 7 8.64 7 10 C8.32 10 9.64 10 11 10 C11.33 11.32 11.66 12.64 12 14 C12.598125 14.0825 13.19625 14.165 13.8125 14.25 C16.5966296 15.20455872 17.43311142 16.57132271 19 19 C18.67 19.66 18.34 20.32 18 21 C17.40574219 20.443125 16.81148438 19.88625 16.19921875 19.3125 C10.82937359 14.3685679 5.32978175 9.90974666 -0.65234375 5.7265625 C-2.64242062 4.26297851 -4.32332249 2.80395006 -6 1 C-4.7934375 1.0309375 -4.7934375 1.0309375 -3.5625 1.0625 C-1.06645115 1.29633621 -1.06645115 1.29633621 0 0 Z " fill="#F9DD8D" transform="translate(328,128)"/>
<path d="M0 0 C0.78375 0.185625 1.5675 0.37125 2.375 0.5625 C4.97089775 1.25962266 4.97089775 1.25962266 7 0 C10 5.75 10 5.75 10 8 C12.97 8.495 12.97 8.495 16 9 C15.67 9.66 15.34 10.32 15 11 C14.34 11 13.68 11 13 11 C13.7734375 12.1446875 13.7734375 12.1446875 14.5625 13.3125 C15.036875 14.199375 15.51125 15.08625 16 16 C15.67 16.99 15.34 17.98 15 19 C12.87283345 16.39759636 10.74864719 13.79277604 8.625 11.1875 C8.02171875 10.44951172 7.4184375 9.71152344 6.796875 8.95117188 C6.21679688 8.23896484 5.63671875 7.52675781 5.0390625 6.79296875 C4.50490723 6.1383667 3.97075195 5.48376465 3.42041016 4.80932617 C2.20566898 3.26198226 1.09120531 1.63680796 0 0 Z " fill="#F9DB7D" transform="translate(347,149)"/>
<path d="M0 0 C0.33 0 0.66 0 1 0 C1.01981934 0.63389648 1.03963867 1.26779297 1.06005859 1.92089844 C1.52771813 18.56731622 1.52771813 18.56731622 4 35 C4.33422598 36.66648789 4.66780752 38.33310557 5 40 C4.67 39.34 4.34 38.68 4 38 C3.34 38 2.68 38 2 38 C0.26036253 33.45054869 -0.30361499 29.52691222 -0.44921875 24.66796875 C-0.47095657 23.99075272 -0.4926944 23.31353668 -0.51509094 22.61579895 C-0.55872382 21.19654729 -0.59798558 19.77715505 -0.63305664 18.35766602 C-0.68778522 16.17613066 -0.75789131 13.99547378 -0.83007812 11.81445312 C-1.05744096 4.07689446 -1.05744096 4.07689446 -1 1 C-0.67 0.67 -0.34 0.34 0 0 Z " fill="#F4B17A" transform="translate(111,244)"/>
<path d="M0 0 C-0.33 0.66 -0.66 1.32 -1 2 C-4.0625 2.625 -4.0625 2.625 -7 3 C-7 3.66 -7 4.32 -7 5 C-7.99 5.33 -8.98 5.66 -10 6 C-10.66 6.66 -11.32 7.32 -12 8 C-16.80566706 9.69611779 -20.9183218 10.20741544 -26 10 C-22.83771686 6.83771686 -18.77066021 5.59326668 -14.6875 3.875 C-13.83220703 3.50246094 -12.97691406 3.12992187 -12.09570312 2.74609375 C-11.26361328 2.39417969 -10.43152344 2.04226562 -9.57421875 1.6796875 C-8.81713623 1.35726074 -8.06005371 1.03483398 -7.2800293 0.70263672 C-4.74764346 -0.07776872 -2.63483519 -0.12492878 0 0 Z " fill="#F7D182" transform="translate(192,61)"/>
<path d="M0 0 C-0.71542969 0.27972656 -1.43085938 0.55945313 -2.16796875 0.84765625 C-9.03292135 3.60962295 -15.51975695 6.76658217 -21.9921875 10.3515625 C-24.96028098 11.97823192 -27.9639759 13.50464484 -31 15 C-30.67 13.68 -30.34 12.36 -30 11 C-29.01 11.33 -28.02 11.66 -27 12 C-27 11.01 -27 10.02 -27 9 C-23.535 8.505 -23.535 8.505 -20 8 C-20 7.01 -20 6.02 -20 5 C-19.2575 4.855625 -18.515 4.71125 -17.75 4.5625 C-15.47972261 4.09812508 -13.24240521 3.58136431 -11 3 C-11 2.34 -11 1.68 -11 1 C-4.03571429 -1.27678571 -4.03571429 -1.27678571 0 0 Z " fill="#F8D291" transform="translate(203,118)"/>
<path d="M0 0 C3.10515402 2.07010268 3.57196269 2.76311542 5 6 C5.44279297 6.88171875 5.44279297 6.88171875 5.89453125 7.78125 C7.18669613 10.37471166 8.4121109 12.99352715 9.625 15.625 C10.07101563 16.58664062 10.51703125 17.54828125 10.9765625 18.5390625 C12 21 12 21 12 23 C12.66 23 13.32 23 14 23 C14.33 24.98 14.66 26.96 15 29 C11.70337298 26.23740602 10.0019302 22.56463627 8.0625 18.8125 C7.53462891 17.80364746 7.53462891 17.80364746 6.99609375 16.77441406 C6.30346856 15.44752376 5.61344159 14.11927334 4.92626953 12.78955078 C4.15619229 11.30176318 3.37448099 9.82000431 2.58984375 8.33984375 C0 3.37365591 0 3.37365591 0 0 Z " fill="#F2AF86" transform="translate(69,325)"/>
<path d="M0 0 C1.07314453 0.00322266 2.14628906 0.00644531 3.25195312 0.00976562 C4.37150391 0.01814453 5.49105469 0.02652344 6.64453125 0.03515625 C8.34125977 0.04192383 8.34125977 0.04192383 10.07226562 0.04882812 C12.86724052 0.06062127 15.66210945 0.07707975 18.45703125 0.09765625 C18.45703125 0.42765625 18.45703125 0.75765625 18.45703125 1.09765625 C16.75160156 1.13632813 16.75160156 1.13632813 15.01171875 1.17578125 C4.8667234 1.51104362 -3.88983313 2.7737645 -13.54296875 6.09765625 C-14.53296875 6.42765625 -15.52296875 6.75765625 -16.54296875 7.09765625 C-16.87296875 6.10765625 -17.20296875 5.11765625 -17.54296875 4.09765625 C-5.16796875 -0.02734375 -5.16796875 -0.02734375 0 0 Z " fill="#FAD496" transform="translate(242.54296875,186.90234375)"/>
<path d="M0 0 C-1.44323772 4.90291395 -2.90817328 9.78862649 -4.5625 14.625 C-5.94465085 18.70598224 -7.0090626 22.80757255 -8 27 C-8.33 27 -8.66 27 -9 27 C-8.67 22.71 -8.34 18.42 -8 14 C-7.34 14 -6.68 14 -6 14 C-6.061875 12.453125 -6.061875 12.453125 -6.125 10.875 C-6.00333028 7.10323875 -5.47895609 4.45089755 -4 1 C-2 0 -2 0 0 0 Z " fill="#F1BC88" transform="translate(123,194)"/>
<path d="M0 0 C0 0.33 0 0.66 0 1 C-0.78375 1.12375 -1.5675 1.2475 -2.375 1.375 C-5.14057822 1.79117993 -5.14057822 1.79117993 -7 4 C-8.87906862 3.9664452 -10.75815402 3.92994888 -12.63671875 3.875 C-16.95127217 4.10320778 -20.938507 5.60769423 -25 7 C-28 8 -28 8 -30.1875 7.0625 C-30.785625 6.711875 -31.38375 6.36125 -32 6 C-28.28009315 5.00221249 -24.55935568 4.0080416 -20.8359375 3.0234375 C-18.73239852 2.46220816 -16.63065325 1.89329983 -14.5390625 1.2890625 C-9.62384725 -0.09522261 -5.05594277 -0.21066428 0 0 Z " fill="#F8D583" transform="translate(224,54)"/>
<path d="M0 0 C0.66 0.99 1.32 1.98 2 3 C4.05925139 3.72382467 4.05925139 3.72382467 6 4 C6 4.66 6 5.32 6 6 C7.134375 6.268125 8.26875 6.53625 9.4375 6.8125 C10.613125 7.204375 11.78875 7.59625 13 8 C13.33 8.99 13.66 9.98 14 11 C15.32303717 11.3721042 16.65737935 11.70630173 18 12 C18.33 12.66 18.66 13.32 19 14 C14.89915347 12.8916631 11.43042321 11.19230155 7.75 9.125 C2.65118096 6.27133996 -2.52306439 4.01969426 -8 2 C-4.90279155 1.12159004 -3.09354597 1.00564594 0 2 C0 1.34 0 0.68 0 0 Z " fill="#F8DA85" transform="translate(303,115)"/>
<path d="M0 0 C-19.99791992 10.85526088 -19.99791992 10.85526088 -24 12 C-24.99 11.67 -25.98 11.34 -27 11 C-26.34 11 -25.68 11 -25 11 C-25 10.34 -25 9.68 -25 9 C-24.360625 8.87625 -23.72125 8.7525 -23.0625 8.625 C-22.381875 8.41875 -21.70125 8.2125 -21 8 C-20.67 7.34 -20.34 6.68 -20 6 C-17.35139573 5.40644386 -14.70802678 5.25790731 -12 5 C-12 4.34 -12 3.68 -12 3 C-10.35 2.67 -8.7 2.34 -7 2 C-7 1.34 -7 0.68 -7 0 C-3.86650268 -1.04449911 -3.01031744 -0.93423645 0 0 Z " fill="#F6BF85" transform="translate(347,423)"/>
<path d="M0 0 C1.32 0 2.64 0 4 0 C4 0.66 4 1.32 4 2 C4.721875 2.268125 5.44375 2.53625 6.1875 2.8125 C8.99766383 3.99901362 11.48416557 5.27485639 14 7 C14 7.66 14 8.32 14 9 C15.32 9 16.64 9 18 9 C18 9.66 18 10.32 18 11 C18.639375 11.28875 19.27875 11.5775 19.9375 11.875 C22 13 22 13 23 15 C14.29595526 12.40158664 6.6599491 7.11995323 0 1 C0 0.67 0 0.34 0 0 Z " fill="#F3B583" transform="translate(176,338)"/>
<path d="M0 0 C0.66 0 1.32 0 2 0 C1.835 1.155 1.67 2.31 1.5 3.5 C0.68646128 10.6385158 0.92079278 17.82734659 1 25 C0.01 24.67 -0.98 24.34 -2 24 C-2 17.73 -2 11.46 -2 5 C-1.34 5 -0.68 5 0 5 C0 3.35 0 1.7 0 0 Z " fill="#F5BB76" transform="translate(193,231)"/>
<path d="M0 0 C0.9075 0.165 1.815 0.33 2.75 0.5 C8.14105253 1.28435395 13.56661766 1.07149187 19 1 C19.99 1 20.98 1 22 1 C21.67 1.66 21.34 2.32 21 3 C19.74703125 3.06058594 18.4940625 3.12117188 17.203125 3.18359375 C15.55207276 3.26802256 13.90103165 3.35266939 12.25 3.4375 C11.425 3.47681641 10.6 3.51613281 9.75 3.55664062 C8.95078125 3.59853516 8.1515625 3.64042969 7.328125 3.68359375 C6.5949707 3.72025146 5.86181641 3.75690918 5.10644531 3.79467773 C2.98822395 4.00114785 1.0480544 4.43132086 -1 5 C-1.33 6.98 -1.66 8.96 -2 11 C-2.33 11 -2.66 11 -3 11 C-3 8.36 -3 5.72 -3 3 C-2.34 3 -1.68 3 -1 3 C-0.67 2.01 -0.34 1.02 0 0 Z " fill="#F7CA6E" transform="translate(364,268)"/>
<path d="M0 0 C0 0.99 0 1.98 0 3 C-2.64738916 4.4606285 -3.89448334 5 -7 5 C-7 5.66 -7 6.32 -7 7 C-7.763125 7.268125 -8.52625 7.53625 -9.3125 7.8125 C-12.01789666 8.79559745 -12.01789666 8.79559745 -13.5625 10.6875 C-14.036875 11.120625 -14.51125 11.55375 -15 12 C-17.1875 11.6875 -17.1875 11.6875 -19 11 C-16.76779318 8.55452501 -14.54094926 7.05251906 -11.625 5.5 C-9.05343833 4.11595624 -6.54967652 2.72214083 -4.0625 1.1875 C-2 0 -2 0 0 0 Z " fill="#F6CC82" transform="translate(157,76)"/>
<path d="M0 0 C0.43828125 0.35191406 0.8765625 0.70382812 1.328125 1.06640625 C7.21531071 5.64931708 13.50705942 9.34231014 20 13 C18.125 13.625 18.125 13.625 16 14 C15.34 13.34 14.68 12.68 14 12 C12.01178687 11.60235737 10.01055661 11.26224651 8 11 C8 10.34 8 9.68 8 9 C7.05125 8.62875 6.1025 8.2575 5.125 7.875 C2 6 2 6 0.625 2.8125 C0.41875 1.884375 0.2125 0.95625 0 0 Z " fill="#F3B389" transform="translate(165,361)"/>
<path d="M0 0 C2.31 0 4.62 0 7 0 C3.04999819 4.19687693 -1.22896434 7.75614164 -6 11 C-6.33 11 -6.66 11 -7 11 C-7 8.03 -7 5.06 -7 2 C-6.67 2 -6.34 2 -6 2 C-6 3.98 -6 5.96 -6 8 C-5.34 8 -4.68 8 -4 8 C-3.67 6.68 -3.34 5.36 -3 4 C-1.68 4 -0.36 4 1 4 C0.67 2.68 0.34 1.36 0 0 Z " fill="#F7BD78" transform="translate(319,336)"/>
<path d="M0 0 C8.57142857 1 8.57142857 1 12 2 C12 2.66 12 3.32 12 4 C13.65 3.67 15.3 3.34 17 3 C17 3.99 17 4.98 17 6 C19.97 6.495 19.97 6.495 23 7 C23 7.66 23 8.32 23 9 C14.80577287 7.24102978 7.50332803 4.73689368 0 1 C0 0.67 0 0.34 0 0 Z " fill="#F5B785" transform="translate(199,353)"/>
<path d="M0 0 C2.31 0.66 4.62 1.32 7 2 C7 2.99 7 3.98 7 5 C8.32 4.67 9.64 4.34 11 4 C11.28875 4.969375 11.5775 5.93875 11.875 6.9375 C12.64214682 10.10664203 12.64214682 10.10664203 15 11 C14.67 11.99 14.34 12.98 14 14 C13.67 13.01 13.34 12.02 13 11 C11.08333333 9.83333333 11.08333333 9.83333333 9 9 C8.34 8.67 7.68 8.34 7 8 C7 7.34 7 6.68 7 6 C6.401875 5.7525 5.80375 5.505 5.1875 5.25 C2.71352479 3.83629988 1.56629745 2.34944617 0 0 Z " fill="#F3A878" transform="translate(116,394)"/>
<path d="M0 0 C-0.125 1.8125 -0.125 1.8125 -1 4 C-3.5 5.5 -3.5 5.5 -7 7 C-8.6255067 7.72803639 -10.25049117 8.45723972 -11.875 9.1875 C-13.24939184 9.79304888 -14.62418236 10.39769761 -16 11 C-16.66 10.34 -17.32 9.68 -18 9 C-17.09636719 8.51789063 -16.19273437 8.03578125 -15.26171875 7.5390625 C-14.07026983 6.90112135 -12.87886594 6.2630961 -11.6875 5.625 C-11.09259766 5.30789063 -10.49769531 4.99078125 -9.88476562 4.6640625 C-1.18823242 0 -1.18823242 0 0 0 Z " fill="#F5BA79" transform="translate(327,368)"/>
<path d="M0 0 C5.33333333 5.33333333 10.66666667 10.66666667 16 16 C13 17 13 17 10 16 C9.67 15.01 9.34 14.02 9 13 C8.01 12.34 7.02 11.68 6 11 C5.67 10.01 5.34 9.02 5 8 C4.01 7.34 3.02 6.68 2 6 C0.8125 2.875 0.8125 2.875 0 0 Z " fill="#F3AA76" transform="translate(143,340)"/>
<path d="M0 0 C1.45606519 4.52092968 0.27032841 7.51648796 -1 12 C-1.66 12 -2.32 12 -3 12 C-3 13.65 -3 15.3 -3 17 C-3.99 17.33 -4.98 17.66 -6 18 C-6.33 19.65 -6.66 21.3 -7 23 C-8.07292326 20.25881191 -8.02652871 19.08249498 -7.109375 16.23046875 C-6.66078125 15.22628906 -6.2121875 14.22210938 -5.75 13.1875 C-5.28722656 12.13433594 -4.82445313 11.08117187 -4.34765625 9.99609375 C-3.90292969 9.00738281 -3.45820312 8.01867187 -3 7 C-2.39274771 5.58465323 -1.78787519 4.16827763 -1.1875 2.75 C-0.795625 1.8425 -0.40375 0.935 0 0 Z " fill="#F4B982" transform="translate(73,164)"/>
<path d="M0 0 C8.46365074 -0.45795305 15.82576948 0.90765718 24 3 C25.66428367 3.34503442 27.33021082 3.68267844 29 4 C29 4.99 29 5.98 29 7 C28.41476562 6.81824219 27.82953125 6.63648437 27.2265625 6.44921875 C18.28120473 3.83008247 9.19355987 2.42606374 0 1 C0 0.67 0 0.34 0 0 Z " fill="#F5DA80" transform="translate(264,109)"/>
<path d="M0 0 C2.14576637 -0.02685938 4.29162645 -0.04633088 6.4375 -0.0625 C7.63246094 -0.07410156 8.82742188 -0.08570313 10.05859375 -0.09765625 C13 0 13 0 14 1 C15.67884238 1.3931648 17.36850045 1.74085452 19.0625 2.0625 C19.98160156 2.23910156 20.90070313 2.41570313 21.84765625 2.59765625 C22.55792969 2.73042969 23.26820313 2.86320312 24 3 C24 3.33 24 3.66 24 4 C18.72 4 13.44 4 8 4 C8 3.01 8 2.02 8 1 C7.236875 1.20625 6.47375 1.4125 5.6875 1.625 C3 2 3 2 0 0 Z " fill="#F9D662" transform="translate(267,54)"/>
<path d="M0 0 C0.66 0.33 1.32 0.66 2 1 C1.21625 1.2475 0.4325 1.495 -0.375 1.75 C-3.42295608 3.20140766 -3.72536664 3.99550707 -5 7 C-7.26330393 9.80218582 -9.63088927 10.81625839 -13 12 C-12.1875 9.5625 -12.1875 9.5625 -11 7 C-10.01 6.67 -9.02 6.34 -8 6 C-7.67 5.01 -7.34 4.02 -7 3 C-3.5625 1.25 -3.5625 1.25 0 0 Z " fill="#F5CC8C" transform="translate(236,219)"/>
<path d="M0 0 C0.66 0.99 1.32 1.98 2 3 C1.125 6.6875 1.125 6.6875 0 10 C0.99 10.33 1.98 10.66 3 11 C1 14 1 14 -1 15 C-1.40729228 17.32156597 -1.74438677 19.6568787 -2 22 C-2.33 22 -2.66 22 -3 22 C-3.36801906 14.06714481 -2.77476512 7.4654395 0 0 Z " fill="#F7A657" transform="translate(141,211)"/>
<path d="M0 0 C0.66 0 1.32 0 2 0 C1.31653981 3.30979037 0.09121167 6.05497527 -1.4375 9.0625 C-1.86933594 9.91972656 -2.30117187 10.77695313 -2.74609375 11.66015625 C-4 14 -4 14 -6 17 C-6 13.7 -6 10.4 -6 7 C-4.68 6.34 -3.36 5.68 -2 5 C-0.71745356 2.46229997 -0.71745356 2.46229997 0 0 Z " fill="#F7BC7B" transform="translate(129,177)"/>
<path d="M0 0 C2.125 -0.3125 2.125 -0.3125 5 0 C7.0167658 1.64633943 9.01739574 3.31267723 11 5 C12.32 5 13.64 5 15 5 C15 6.32 15 7.64 15 9 C9.26800429 7.53025751 4.66416601 4.55513098 0 1 C0 0.67 0 0.34 0 0 Z " fill="#F2A472" transform="translate(144,416)"/>
<path d="M0 0 C0.66 0.33 1.32 0.66 2 1 C1.01 3.31 0.02 5.62 -1 8 C-1.66 7.67 -2.32 7.34 -3 7 C-3.226875 7.763125 -3.45375 8.52625 -3.6875 9.3125 C-5.26731682 12.54736301 -6.83282717 13.41641358 -10 15 C-8.59601721 10.89889238 -6.62912962 8.01910841 -3.875 4.6875 C-3.15054688 3.80449219 -2.42609375 2.92148438 -1.6796875 2.01171875 C-1.12539062 1.34785156 -0.57109375 0.68398437 0 0 Z " fill="#F8C88D" transform="translate(165,171)"/>
<path d="M0 0 C5.83096952 3.10157953 10.86601899 6.85556181 16 11 C12.98968256 11.93423645 12.13349732 12.04449911 9 11 C8.731875 10.38125 8.46375 9.7625 8.1875 9.125 C7.08710318 6.68232095 7.08710318 6.68232095 3.9375 5.5 C1 4 1 4 0.125 1.8125 C0.08375 1.214375 0.0425 0.61625 0 0 Z " fill="#F9D98E" transform="translate(312,153)"/>
<path d="M0 0 C0.99 0 1.98 0 3 0 C3.33 0.66 3.66 1.32 4 2 C5.99586842 2.19631493 7.99179896 2.39206076 9.98828125 2.58203125 C12.88434541 3.18373778 14.2292599 4.71279403 16 7 C14.41590006 6.88512252 12.83271037 6.75765492 11.25 6.625 C10.36828125 6.55539063 9.4865625 6.48578125 8.578125 6.4140625 C5.97222794 5.99553964 4.22977297 5.39360811 2 4 C0.75 1.875 0.75 1.875 0 0 Z " fill="#F9D16C" transform="translate(295,146)"/>
<path d="M0 0 C3 0 3 0 4.5 1.4375 C4.995 1.953125 5.49 2.46875 6 3 C6.99 3.33 7.98 3.66 9 4 C9.33 5.98 9.66 7.96 10 10 C8.68 10 7.36 10 6 10 C4.296875 8.06640625 4.296875 8.06640625 2.75 5.5625 C2.22921875 4.73878906 1.7084375 3.91507812 1.171875 3.06640625 C0 1 0 1 0 0 Z " fill="#F6A270" transform="translate(86,358)"/>
<path d="M0 0 C1.32 0.33 2.64 0.66 4 1 C3.01 2.485 3.01 2.485 2 4 C1.34 4 0.68 4 0 4 C-0.66 5.32 -1.32 6.64 -2 8 C-2.66 8 -3.32 8 -4 8 C-4.33 8.99 -4.66 9.98 -5 11 C-5.66 11 -6.32 11 -7 11 C-6.67 9.68 -6.34 8.36 -6 7 C-5.34 7 -4.68 7 -4 7 C-4 6.01 -4 5.02 -4 4 C-3.01 4 -2.02 4 -1 4 C-0.67 2.68 -0.34 1.36 0 0 Z " fill="#F6C78E" transform="translate(333,325)"/>
<path d="M0 0 C0.33 0.66 0.66 1.32 1 2 C0.34 2 -0.32 2 -1 2 C-1 2.99 -1 3.98 -1 5 C-2.63064764 6.05771739 -4.30280873 7.05273046 -6 8 C-6.495 8.53625 -6.99 9.0725 -7.5 9.625 C-9.51536084 11.4724141 -11.33833049 11.64031493 -14 12 C-9.73412126 7.45890328 -4.96387672 3.75264754 0 0 Z " fill="#F5C483" transform="translate(341,356)"/>
<path d="M0 0 C0.33 1.32 0.66 2.64 1 4 C-0.1875 5.3125 -0.1875 5.3125 -2 7 C-3.4344458 9.28486723 -4.70401273 11.63147154 -6 14 C-7.32 13.67 -8.64 13.34 -10 13 C-5.05 6.565 -5.05 6.565 0 0 Z " fill="#F7C47E" transform="translate(361,333)"/>
<path d="M0 0 C0.66 0 1.32 0 2 0 C2.99 2.97 3.98 5.94 5 9 C5.66 9 6.32 9 7 9 C7.33 10.65 7.66 12.3 8 14 C8.66 14 9.32 14 10 14 C9.67 14.99 9.34 15.98 9 17 C4.97906579 12.38337183 0 6.32944487 0 0 Z " fill="#F3B57D" transform="translate(145,296)"/>
<path d="M0 0 C-3.19990508 2.74277578 -6.00499382 4.6302836 -10 6 C-10 6.66 -10 7.32 -10 8 C-10.66 8 -11.32 8 -12 8 C-12 8.66 -12 9.32 -12 10 C-12.66 10 -13.32 10 -14 10 C-14 9.01 -14 8.02 -14 7 C-13.34 7 -12.68 7 -12 7 C-12 6.34 -12 5.68 -12 5 C-11.01 5 -10.02 5 -9 5 C-8.8453125 4.0409375 -8.8453125 4.0409375 -8.6875 3.0625 C-8.460625 2.381875 -8.23375 1.70125 -8 1 C-5.07175348 0.02391783 -3.04386724 -0.08226668 0 0 Z " fill="#F7C785" transform="translate(225,194)"/>
<path d="M0 0 C-2.97812597 1.98541731 -5.49843969 2.98825276 -8.875 4.125 C-9.90367187 4.47820312 -10.93234375 4.83140625 -11.9921875 5.1953125 C-14.82719431 5.95376887 -17.08640824 6.16126892 -20 6 C-20 5.34 -20 4.68 -20 4 C-18.906875 3.87625 -17.81375 3.7525 -16.6875 3.625 C-12.92618198 3.24535199 -12.92618198 3.24535199 -10 1 C-6.61412577 0.10898047 -3.49256685 -0.09978762 0 0 Z " fill="#F4B883" transform="translate(317,436)"/>
<path d="M0 0 C0.97378856 2.59676951 1.07793264 3.76842873 0.1796875 6.4375 C-2.29052926 11.28918321 -4.25013256 15.01436904 -9 18 C-7.64734437 14.35371092 -5.9907517 11.17432828 -3.9375 7.875 C-2.27320598 5.19748052 -1.00009199 3.00027598 0 0 Z " fill="#F5C689" transform="translate(373,313)"/>
<path d="M0 0 C-0.66 0 -1.32 0 -2 0 C-2 0.66 -2 1.32 -2 2 C-7.32932432 3.70084819 -12.43109483 4.52013969 -18 5 C-15.11550348 2.6229612 -12.57662226 1.31862494 -9 0.25 C-8.154375 -0.01296875 -7.30875 -0.2759375 -6.4375 -0.546875 C-3.8907775 -1.02030418 -2.4249914 -0.83078409 0 0 Z " fill="#F6D085" transform="translate(224,139)"/>
<path d="M0 0 C0.66 0 1.32 0 2 0 C2.103125 0.639375 2.20625 1.27875 2.3125 1.9375 C2.539375 2.618125 2.76625 3.29875 3 4 C3.99 4.33 4.98 4.66 6 5 C7.203125 6.48828125 7.203125 6.48828125 8.25 8.3125 C8.78367187 9.20388672 8.78367187 9.20388672 9.328125 10.11328125 C10.15994803 12.4491564 9.7945524 13.69274206 9 16 C7.68370433 13.89812468 6.37187003 11.79368324 5.0625 9.6875 C4.68931641 9.09259766 4.31613281 8.49769531 3.93164062 7.88476562 C2.31175806 5.27252256 0.97592942 2.92778827 0 0 Z " fill="#F8DD87" transform="translate(363,168)"/>
<path d="M0 0 C-1.3255581 3.62276315 -2.94346955 6.63505348 -5.125 9.8125 C-5.66382813 10.60269531 -6.20265625 11.39289063 -6.7578125 12.20703125 C-7.37269531 13.09455078 -7.37269531 13.09455078 -8 14 C-8.33 12.68 -8.66 11.36 -9 10 C-8.34 10 -7.68 10 -7 10 C-7 9.01 -7 8.02 -7 7 C-6.34 7 -5.68 7 -5 7 C-4.814375 5.5459375 -4.814375 5.5459375 -4.625 4.0625 C-4.41875 3.051875 -4.2125 2.04125 -4 1 C-2 0 -2 0 0 0 Z " fill="#F5CA7D" transform="translate(350,306)"/>
<path d="M0 0 C0.33 0 0.66 0 1 0 C1.28875 0.969375 1.5775 1.93875 1.875 2.9375 C2.64214682 6.10664203 2.64214682 6.10664203 5 7 C4.67 8.98 4.34 10.96 4 13 C3.01 13 2.02 13 1 13 C-0.00496852 9.98509443 -0.10335303 7.95818308 -0.0625 4.8125 C-0.05347656 3.91144531 -0.04445312 3.01039063 -0.03515625 2.08203125 C-0.02355469 1.39496094 -0.01195312 0.70789063 0 0 Z " fill="#FB934D" transform="translate(57,266)"/>
<path d="M0 0 C-0.93746045 3.10083071 -1.87087917 5.78824183 -3.5625 8.5625 C-5.05435488 11.09216697 -5.5875699 13.11298928 -6 16 C-6.33 16 -6.66 16 -7 16 C-7.36196676 10.20853178 -6.38210489 6.3139263 -4 1 C-2 0 -2 0 0 0 Z " fill="#F5C689" transform="translate(202,215)"/>
<path d="M0 0 C0.33 0 0.66 0 1 0 C1.35099077 3.77315072 1.36755366 5.48542488 -0.875 8.625 C-1.57625 9.40875 -2.2775 10.1925 -3 11 C-3.70885894 12.31138904 -4.39456452 13.63777017 -5 15 C-5.66 15 -6.32 15 -7 15 C-5.45454854 9.52067211 -2.84456788 4.88570819 0 0 Z " fill="#F6BE85" transform="translate(81,149)"/>
<path d="M0 0 C0.33 0.66 0.66 1.32 1 2 C3.32156597 2.40729228 5.6568787 2.74438677 8 3 C8 3.33 8 3.66 8 4 C-3.52164009 4.3690205 -3.52164009 4.3690205 -9 2 C-5.86501708 0.14223235 -3.62528568 -0.20140476 0 0 Z " fill="#F39C65" transform="translate(210,440)"/>
<path d="M0 0 C0.97161849 3.05854551 0.99142062 4.98255272 0.125 8.0625 C-0.05804688 8.73410156 -0.24109375 9.40570313 -0.4296875 10.09765625 C-0.92243847 11.74128448 -1.45738436 13.37215309 -2 15 C-2.99 15.33 -3.98 15.66 -5 16 C-4.54548816 14.26982492 -4.08621143 12.54090123 -3.625 10.8125 C-3.36976563 9.84957031 -3.11453125 8.88664062 -2.8515625 7.89453125 C-2.05233704 5.17789793 -1.0968638 2.60862825 0 0 Z " fill="#F5CF87" transform="translate(385,282)"/>
<path d="M0 0 C0.66 0.33 1.32 0.66 2 1 C2.49230769 8.26153846 2.49230769 8.26153846 0 12 C-0.66 12.66 -1.32 13.32 -2 14 C-1.85866501 12.22880197 -1.71176792 10.45804713 -1.5625 8.6875 C-1.48128906 7.70136719 -1.40007812 6.71523438 -1.31640625 5.69921875 C-1 3 -1 3 0 0 Z " fill="#FBC455" transform="translate(388,272)"/>
<path d="M0 0 C0.33 0 0.66 0 1 0 C2.71121754 4.52150975 3.35223612 8.55617153 3.625 13.375 C3.69976562 14.62023437 3.77453125 15.86546875 3.8515625 17.1484375 C3.90054688 18.08945312 3.94953125 19.03046875 4 20 C0.10160709 14.15241063 -0.29973431 6.89388918 0 0 Z " fill="#F4B37B" transform="translate(136,262)"/>
<path d="M0 0 C1.70884005 1.62339805 3.37446717 3.29319053 5 5 C5 5.66 5 6.32 5 7 C5.66 7 6.32 7 7 7 C7.33 8.32 7.66 9.64 8 11 C6.68 11 5.36 11 4 11 C3.32880451 9.5437455 2.66318193 8.08492133 2 6.625 C1.62875 5.81289062 1.2575 5.00078125 0.875 4.1640625 C0 2 0 2 0 0 Z " fill="#FCE58E" transform="translate(400,123)"/>
<path d="M0 0 C0 0.66 0 1.32 0 2 C-2.64 2.66 -5.28 3.32 -8 4 C-8 4.66 -8 5.32 -8 6 C-11.3 6.33 -14.6 6.66 -18 7 C-15.38056097 4.38056097 -12.42526027 3.55802162 -9 2.375 C-8.03707031 2.03082031 -8.03707031 2.03082031 -7.0546875 1.6796875 C-2.27557664 0 -2.27557664 0 0 0 Z " fill="#F3B983" transform="translate(307,379)"/>
<path d="M0 0 C0.91058531 3.07322544 1.08886184 5.80097361 1 9 C-0.32 9.33 -1.64 9.66 -3 10 C-3 10.99 -3 11.98 -3 13 C-3.66 13 -4.32 13 -5 13 C-4.54554036 11.58208592 -4.08625056 10.16571954 -3.625 8.75 C-3.24214844 7.56664062 -3.24214844 7.56664062 -2.8515625 6.359375 C-2.04826333 4.13372042 -1.10288338 2.09068328 0 0 Z " fill="#F6CE84" transform="translate(379,300)"/>
<path d="M0 0 C0.66 0.33 1.32 0.66 2 1 C-0.21435828 5.42871657 -2.72301036 7.54300595 -7 10 C-7.66 10 -8.32 10 -9 10 C-9 9.34 -9 8.68 -9 8 C-7.28515625 6.30859375 -7.28515625 6.30859375 -5.0625 4.4375 C-3.96615234 3.50744141 -3.96615234 3.50744141 -2.84765625 2.55859375 C-2.23792969 2.04425781 -1.62820312 1.52992187 -1 1 C-0.67 0.67 -0.34 0.34 0 0 Z " fill="#F6C57C" transform="translate(121,100)"/>
<path d="M0 0 C0.556875 0.70125 1.11375 1.4025 1.6875 2.125 C4.09124732 5.11344261 6.53810432 8.05940238 9 11 C8 13 8 13 6 14 C6 12.68 6 11.36 6 10 C5.01 9.67 4.02 9.34 3 9 C2.67 8.01 2.34 7.02 2 6 C1.34 5.67 0.68 5.34 0 5 C0 3.35 0 1.7 0 0 Z " fill="#F3B382" transform="translate(134,327)"/>
<path d="M0 0 C0.33 0.66 0.66 1.32 1 2 C2.65 1.67 4.3 1.34 6 1 C5.34 3.97 4.68 6.94 4 10 C3.34 9.67 2.68 9.34 2 9 C1.4375 6.6875 1.4375 6.6875 1 4 C0.67516582 2.66457061 0.3449145 1.33038449 0 0 Z " fill="#FB904B" transform="translate(66,311)"/>
<path d="M0 0 C0 0.66 0 1.32 0 2 C-3.63 3.32 -7.26 4.64 -11 6 C-11.33 5.01 -11.66 4.02 -12 3 C-10.56445975 2.49440092 -9.1264798 1.9957251 -7.6875 1.5 C-6.88699219 1.2215625 -6.08648437 0.943125 -5.26171875 0.65625 C-3 0 -3 0 0 0 Z " fill="#F5C878" transform="translate(237,188)"/>
<path d="M0 0 C0.66 0.33 1.32 0.66 2 1 C-0.89066059 10.59453303 -0.89066059 10.59453303 -4 14 C-4 11.69 -4 9.38 -4 7 C-3.01 6.67 -2.02 6.34 -1 6 C-0.67 4.02 -0.34 2.04 0 0 Z " fill="#F8D282" transform="translate(426,330)"/>
<path d="M0 0 C0.99 0.66 1.98 1.32 3 2 C0.24075815 3.80411967 -0.88972103 4.0127245 -4.25 3.625 C-5.1575 3.41875 -6.065 3.2125 -7 3 C-7 2.34 -7 1.68 -7 1 C-3.375 -1.125 -3.375 -1.125 0 0 Z " fill="#FBCE5E" transform="translate(300,113)"/>
<path d="M0 0 C0.66 0 1.32 0 2 0 C2 0.66 2 1.32 2 2 C2.66 2.33 3.32 2.66 4 3 C4 3.99 4 4.98 4 6 C4.66 6.66 5.32 7.32 6 8 C1.25 7.25 1.25 7.25 -1 5 C-0.625 2.375 -0.625 2.375 0 0 Z " fill="#F6955C" transform="translate(109,382)"/>
<path d="M0 0 C0.66 0 1.32 0 2 0 C3.75 2.125 3.75 2.125 5 5 C4.1875 8.3125 4.1875 8.3125 3 11 C0.60236815 8.60236815 0.65719414 7.66726502 0.375 4.375 C0.30023438 3.55773437 0.22546875 2.74046875 0.1484375 1.8984375 C0.09945312 1.27195312 0.05046875 0.64546875 0 0 Z " fill="#F4A978" transform="translate(56,276)"/>
<path d="M0 0 C3.35867712 0.75970078 6.52123658 1.87093255 9.75 3.0625 C11.22726563 3.60583984 11.22726563 3.60583984 12.734375 4.16015625 C13.48203125 4.43730469 14.2296875 4.71445312 15 5 C14.01 5.66 13.02 6.32 12 7 C12 6.34 12 5.68 12 5 C11.0925 5.04125 10.185 5.0825 9.25 5.125 C6.1217954 5.00468444 4.61385994 4.6085292 2 3 C2 2.34 2 1.68 2 1 C1.34 0.67 0.68 0.34 0 0 Z " fill="#F4B082" transform="translate(196,380)"/>
<path d="M0 0 C0.66 0 1.32 0 2 0 C2.49230769 7.26153846 2.49230769 7.26153846 0 11 C-0.66 11.66 -1.32 12.32 -2 13 C-1.39174965 8.65535464 -0.73832608 4.32448133 0 0 Z " fill="#F3B787" transform="translate(61,195)"/>
<path d="M0 0 C0.66 0.33 1.32 0.66 2 1 C-2.455 4.465 -2.455 4.465 -7 8 C-7.33 6.68 -7.66 5.36 -8 4 C-6.35 3.67 -4.7 3.34 -3 3 C-3 2.34 -3 1.68 -3 1 C-2.01 0.67 -1.02 0.34 0 0 Z " fill="#F8CB89" transform="translate(166,136)"/>
<path d="M0 0 C0.66 0.33 1.32 0.66 2 1 C0.34703566 5.09305456 -1.13546142 8.58983503 -4 12 C-3.67 9.36 -3.34 6.72 -3 4 C-2.34 4 -1.68 4 -1 4 C-0.67 2.68 -0.34 1.36 0 0 Z " fill="#F6C984" transform="translate(354,294)"/>
<path d="M0 0 C-3.46741134 2.95749791 -6.86873527 5.07848152 -11 7 C-10.67 5.68 -10.34 4.36 -10 3 C-9.01 3.33 -8.02 3.66 -7 4 C-7 3.01 -7 2.02 -7 1 C-4.53721199 -0.231394 -2.7204945 -0.07159196 0 0 Z " fill="#F6C684" transform="translate(183,126)"/>
<path d="M0 0 C1.32 0 2.64 0 4 0 C4.66 1.65 5.32 3.3 6 5 C5.01 5.33 4.02 5.66 3 6 C1.68 4.68 0.36 3.36 -1 2 C-0.67 1.34 -0.34 0.68 0 0 Z " fill="#F89652" transform="translate(161,361)"/>
<path d="M0 0 C4 0 4 0 6.75 2.3125 C9 5 9 5 9 8 C8.01 7.67 7.02 7.34 6 7 C6 6.34 6 5.68 6 5 C4.68 4.34 3.36 3.68 2 3 C2 2.34 2 1.68 2 1 C1.34 0.67 0.68 0.34 0 0 Z " fill="#F2BB92" transform="translate(165,328)"/>
<path d="M0 0 C4.3177458 0.50797009 8.03302114 1.19682779 12 3 C8.67255773 4.10914742 6.35438475 4.03211839 3 3 C1.1875 1.4375 1.1875 1.4375 0 0 Z " fill="#FCD95E" transform="translate(319,67)"/>
<path d="M0 0 C1.41782145 0.06059066 2.83444466 0.14954123 4.25 0.25 C5.03890625 0.29640625 5.8278125 0.3428125 6.640625 0.390625 C9.67898672 1.17536743 10.96841312 2.67019853 13 5 C11.20620902 4.55005243 9.41501072 4.08975857 7.625 3.625 C6.62726563 3.36976563 5.62953125 3.11453125 4.6015625 2.8515625 C2 2 2 2 0 0 Z " fill="#F3B188" transform="translate(181,435)"/>
<path d="M0 0 C0.99 0.33 1.98 0.66 3 1 C3.99 0.67 4.98 0.34 6 0 C4.7508258 3.45925163 3.32472205 6.14693203 1 9 C0.67 6.03 0.34 3.06 0 0 Z " fill="#F8CC7A" transform="translate(416,344)"/>
<path d="M0 0 C0.33 0 0.66 0 1 0 C1 1.98 1 3.96 1 6 C1.66 6 2.32 6 3 6 C3 5.01 3 4.02 3 3 C3.99 3 4.98 3 6 3 C6 3.99 6 4.98 6 6 C4.02 6.99 2.04 7.98 0 9 C0 6.03 0 3.06 0 0 Z " fill="#F0C085" transform="translate(312,338)"/>
<path d="M0 0 C1.98 0 3.96 0 6 0 C7 4.75 7 4.75 7 7 C6.34 7 5.68 7 5 7 C4.67 6.01 4.34 5.02 4 4 C2.70644173 2.62804426 1.37701298 1.28817344 0 0 Z " fill="#FA9A51" transform="translate(169,329)"/>
<path d="M0 0 C1.1171875 1.703125 1.1171875 1.703125 2 4 C1.3203125 6.359375 1.3203125 6.359375 0.125 8.75 C-0.26429688 9.54921875 -0.65359375 10.3484375 -1.0546875 11.171875 C-1.36664063 11.77515625 -1.67859375 12.3784375 -2 13 C-3.18771723 9.57056481 -2.80226223 7.62215325 -1.5625 4.25 C-1.27503906 3.45078125 -0.98757813 2.6515625 -0.69140625 1.828125 C-0.46324219 1.22484375 -0.23507812 0.6215625 0 0 Z " fill="#F7D38D" transform="translate(431,318)"/>
<path d="M0 0 C3.66670726 2.4444715 3.93344791 3.81583412 5 8 C5.125 10.875 5.125 10.875 5 13 C2.79970166 10.79970166 2.31417391 9.4218744 1.375 6.5 C0.98441406 5.30890625 0.98441406 5.30890625 0.5859375 4.09375 C0 2 0 2 0 0 Z " fill="#F6B985" transform="translate(140,283)"/>
<path d="M0 0 C1 3 1 3 0.0625 5.1875 C-0.4634375 6.0846875 -0.4634375 6.0846875 -1 7 C-1.66 7 -2.32 7 -3 7 C-3.66 8.32 -4.32 9.64 -5 11 C-5.66 11 -6.32 11 -7 11 C-5.5140084 6.40693504 -3.14985318 3.56430755 0 0 Z " fill="#F7CA8F" transform="translate(102,119)"/>
<path d="M0 0 C2.31 0.33 4.62 0.66 7 1 C7.33 1.99 7.66 2.98 8 4 C9.32303717 4.3721042 10.65737935 4.70630173 12 5 C12.33 5.66 12.66 6.32 13 7 C8.1725201 5.58707905 4.2837641 3.57025846 0 1 C0 0.67 0 0.34 0 0 Z " fill="#F8DD93" transform="translate(309,122)"/>
<path d="M0 0 C1.62818946 0.22830701 3.2526349 0.48343576 4.875 0.75 C6.23238281 0.95882812 6.23238281 0.95882812 7.6171875 1.171875 C10 2 10 2 11.3203125 4.078125 C11.54460937 4.71234375 11.76890625 5.3465625 12 6 C10.68 5.67 9.36 5.34 8 5 C8 4.34 8 3.68 8 3 C6.865625 2.87625 5.73125 2.7525 4.5625 2.625 C3.386875 2.41875 2.21125 2.2125 1 2 C0.67 1.34 0.34 0.68 0 0 Z " fill="#FAE17A" transform="translate(339,76)"/>
<path d="M0 0 C2.69195459 4.03793188 3.91495658 8.29814518 5 13 C3.68 12.67 2.36 12.34 1 12 C0.67 8.04 0.34 4.08 0 0 Z " fill="#F7C385" transform="translate(194,259)"/>
<path d="M0 0 C0.66 0.33 1.32 0.66 2 1 C1.21625 1.2475 0.4325 1.495 -0.375 1.75 C-3.38305008 3.1824048 -3.75490357 4.0309239 -5 7 C-5.99 7.495 -5.99 7.495 -7 8 C-6.875 5.6875 -6.875 5.6875 -6 3 C-3.0625 1.125 -3.0625 1.125 0 0 Z " fill="#F3C279" transform="translate(236,219)"/>
<path d="M0 0 C0.33 0 0.66 0 1 0 C1 1.98 1 3.96 1 6 C0.34 6 -0.32 6 -1 6 C-1 6.99 -1 7.98 -1 9 C-1.99 9.33 -2.98 9.66 -4 10 C-2.99806563 6.20696275 -2.18975773 3.28463659 0 0 Z " fill="#F6C086" transform="translate(148,196)"/>
<path d="M0 0 C0.8971875 0.309375 0.8971875 0.309375 1.8125 0.625 C1.1525 0.625 0.4925 0.625 -0.1875 0.625 C-0.8475 1.945 -1.5075 3.265 -2.1875 4.625 C-4.1675 4.625 -6.1475 4.625 -8.1875 4.625 C-3.2421875 -0.55580357 -3.2421875 -0.55580357 0 0 Z " fill="#FABC58" transform="translate(208.1875,144.375)"/>
<path d="M0 0 C1.32 0.66 2.64 1.32 4 2 C1.36 3.65 -1.28 5.3 -4 7 C-3.67 5.68 -3.34 4.36 -3 3 C-2.01 3 -1.02 3 0 3 C0 2.01 0 1.02 0 0 Z " fill="#F6C085" transform="translate(352,415)"/>
<path d="M0 0 C1.32 0 2.64 0 4 0 C4 0.66 4 1.32 4 2 C-0.47058824 6 -0.47058824 6 -3 6 C-3 5.01 -3 4.02 -3 3 C-2.34 3 -1.68 3 -1 3 C-0.67 2.01 -0.34 1.02 0 0 Z " fill="#F4C582" transform="translate(380,394)"/>
<path d="M0 0 C1 2 1 2 0.44140625 4.1640625 C0.15136719 4.97617187 -0.13867188 5.78828125 -0.4375 6.625 C-0.72496094 7.44226563 -1.01242187 8.25953125 -1.30859375 9.1015625 C-1.53675781 9.72804688 -1.76492188 10.35453125 -2 11 C-2.33 11 -2.66 11 -3 11 C-3.36923077 3.49230769 -3.36923077 3.49230769 -1.5 1 C-1.005 0.67 -0.51 0.34 0 0 Z " fill="#F8D58C" transform="translate(436,308)"/>
<path d="M0 0 C1.17571451 3.67410785 1.07366746 7.16929183 1 11 C0.01 10.67 -0.98 10.34 -2 10 C-1.85950482 8.52031676 -1.71245174 7.04125484 -1.5625 5.5625 C-1.48128906 4.73878906 -1.40007812 3.91507812 -1.31640625 3.06640625 C-1 1 -1 1 0 0 Z " fill="#FBC05C" transform="translate(381,297)"/>
<path d="M0 0 C1.24546405 2.49092811 0.7767578 3.41080733 0 6 C-0.66 6 -1.32 6 -2 6 C-2.33 7.32 -2.66 8.64 -3 10 C-3.66 10 -4.32 10 -5 10 C-4.38545304 6.00544473 -2.29353263 3.25533664 0 0 Z " fill="#F3C283" transform="translate(154,186)"/>
<path d="M0 0 C0 3 0 3 -1 5 C-1.99 5 -2.98 5 -4 5 C-4 5.99 -4 6.98 -4 8 C-4.99 8 -5.98 8 -7 8 C-6.34 6.68 -5.68 5.36 -5 4 C-4.34 4 -3.68 4 -3 4 C-2.67 3.01 -2.34 2.02 -2 1 C-1.34 0.67 -0.68 0.34 0 0 Z " fill="#F7D09A" transform="translate(174,163)"/>
<path d="M0 0 C2.8203125 -0.29296875 2.8203125 -0.29296875 6.125 -0.1875 C7.76855469 -0.14689453 7.76855469 -0.14689453 9.4453125 -0.10546875 C10.28835937 -0.07066406 11.13140625 -0.03585938 12 0 C12 0.33 12 0.66 12 1 C7.38 1.66 2.76 2.32 -2 3 C-1.34 2.01 -0.68 1.02 0 0 Z " fill="#F7DA8A" transform="translate(224,109)"/>
<path d="M0 0 C2.64 0 5.28 0 8 0 C8.33 1.32 8.66 2.64 9 4 C6.03 3.01 3.06 2.02 0 1 C0 0.67 0 0.34 0 0 Z " fill="#F3AA7B" transform="translate(168,430)"/>
<path d="M0 0 C2 3 2 3 1.5390625 5.48046875 C1.23742187 6.37378906 0.93578125 7.26710937 0.625 8.1875 C0.32851562 9.08855469 0.03203125 9.98960937 -0.2734375 10.91796875 C-0.63308594 11.94857422 -0.63308594 11.94857422 -1 13 C-1.66 12.67 -2.32 12.34 -3 12 C-2.01 8.04 -1.02 4.08 0 0 Z " fill="#F8BC81" transform="translate(141,211)"/>
<path d="M0 0 C-0.66 1.98 -1.32 3.96 -2 6 C-2.66 6 -3.32 6 -4 6 C-4 6.66 -4 7.32 -4 8 C-4.66 7.67 -5.32 7.34 -6 7 C-5.39816251 4.97954558 -4.72693904 2.97888961 -4 1 C-2 0 -2 0 0 0 Z " fill="#F4B772" transform="translate(123,194)"/>
<path d="M0 0 C0.78375 0.185625 1.5675 0.37125 2.375 0.5625 C4.97089775 1.25962266 4.97089775 1.25962266 7 0 C7.33 1.32 7.66 2.64 8 4 C7.01 4.495 7.01 4.495 6 5 C1.29508197 2.59016393 1.29508197 2.59016393 0 0 Z " fill="#FAD76D" transform="translate(347,149)"/>
<path d="M0 0 C0 0.66 0 1.32 0 2 C-0.66 2 -1.32 2 -2 2 C-2 2.66 -2 3.32 -2 4 C-4.31 4.33 -6.62 4.66 -9 5 C-6.45523312 2.20075644 -3.92372883 0 0 0 Z " fill="#F7D490" transform="translate(166,71)"/>
<path d="M0 0 C4.96916636 0.51405169 9.29026351 1.23384882 14 3 C14 3.33 14 3.66 14 4 C8.34605369 4.34615998 4.96993194 3.43425238 0 1 C0 0.67 0 0.34 0 0 Z " fill="#F9E8A2" transform="translate(298,58)"/>
<path d="M0 0 C0.33 0.66 0.66 1.32 1 2 C-0.30406884 4.01920337 -1.63823419 6.01924973 -3 8 C-3.33 8 -3.66 8 -4 8 C-4.125 3.25 -4.125 3.25 -3 1 C-2.01 0.67 -1.02 0.34 0 0 Z " fill="#F8CC8C" transform="translate(415,354)"/>
<path d="M0 0 C0.99 0.66 1.98 1.32 3 2 C2.67 2.99 2.34 3.98 2 5 C1.67 4.34 1.34 3.68 1 3 C-0.98 3 -2.96 3 -5 3 C-5.33 2.34 -5.66 1.68 -6 1 C-4.7934375 1.0309375 -4.7934375 1.0309375 -3.5625 1.0625 C-1.06645115 1.29633621 -1.06645115 1.29633621 0 0 Z " fill="#FAD36F" transform="translate(328,128)"/>
<path d="M0 0 C0 3 0 3 -1 6 C-4.0625 7.1875 -4.0625 7.1875 -7 8 C-6.21366078 6.85050412 -5.42073742 5.70551011 -4.625 4.5625 C-4.18414062 3.92441406 -3.74328125 3.28632812 -3.2890625 2.62890625 C-2 1 -2 1 0 0 Z " fill="#F6CD8D" transform="translate(110,111)"/>
<path d="M0 0 C2.31 0 4.62 0 7 0 C7.33 1.32 7.66 2.64 8 4 C2.25 2.25 2.25 2.25 0 0 Z " fill="#F1AF83" transform="translate(160,426)"/>
<path d="M0 0 C0.66 0 1.32 0 2 0 C4.29013653 3.4352048 4.17842973 4.985331 4 9 C1.47740939 7.02579865 1.0070192 6.03254358 0.3125 2.8125 C0.209375 1.884375 0.10625 0.95625 0 0 Z " fill="#F3A87F" transform="translate(64,311)"/>
<path d="M0 0 C0.99 0 1.98 0 3 0 C1.95125002 2.62187494 1.35068687 3.79371361 -1.125 5.25 C-1.74375 5.4975 -2.3625 5.745 -3 6 C-1.125 1.125 -1.125 1.125 0 0 Z " fill="#F6C381" transform="translate(158,180)"/>
<path d="M0 0 C1.32 0.33 2.64 0.66 4 1 C3.67 3.31 3.34 5.62 3 8 C1.58622659 5.36095629 0.62759865 2.92879371 0 0 Z " fill="#F9DE78" transform="translate(418,153)"/>
<path d="M0 0 C0.66 0.33 1.32 0.66 2 1 C-0.75 3.0625 -0.75 3.0625 -4 5 C-6.203125 4.62109375 -6.203125 4.62109375 -8 4 C-6.71349294 3.30289269 -5.42059335 2.61757124 -4.125 1.9375 C-3.40570313 1.55464844 -2.68640625 1.17179688 -1.9453125 0.77734375 C-1.30335938 0.52082031 -0.66140625 0.26429688 0 0 Z " fill="#F7D08E" transform="translate(204,144)"/>
<path d="M0 0 C0.99 0.33 1.98 0.66 3 1 C3.6875 3.0625 3.6875 3.0625 4 5 C2.68 5.33 1.36 5.66 0 6 C-1 3 -1 3 0 0 Z " fill="#F8DE6C" transform="translate(397,121)"/>
<path d="M0 0 C2.97 1.98 2.97 1.98 6 4 C5.67 4.99 5.34 5.98 5 7 C4.01 6.67 3.02 6.34 2 6 C0.8125 2.9375 0.8125 2.9375 0 0 Z " fill="#F5B173" transform="translate(165,361)"/>
<path d="M0 0 C2.0625 0.4375 2.0625 0.4375 4 1 C3.01 2.485 3.01 2.485 2 4 C1.34 4 0.68 4 0 4 C-0.33 4.66 -0.66 5.32 -1 6 C-1.042721 4.33388095 -1.04063832 2.66617115 -1 1 C-0.67 0.67 -0.34 0.34 0 0 Z " fill="#F9CD96" transform="translate(333,325)"/>
<path d="M0 0 C0.6875 1.625 0.6875 1.625 1 4 C-0.4375 7.25 -0.4375 7.25 -2 10 C-2.66 10 -3.32 10 -4 10 C-3.29445932 6.33118845 -1.72264494 3.29549466 0 0 Z " fill="#F6D095" transform="translate(373,313)"/>
<path d="M0 0 C1.73662334 3.22515763 2.8905928 6.51329166 4 10 C3.34 10 2.68 10 2 10 C-0.4294516 6.3558226 -0.16179575 4.28758728 0 0 Z " fill="#F5B384" transform="translate(119,296)"/>
<path d="M0 0 C1.61949011 2.57213134 2.04408751 3.67669159 1.625 6.75 C1.41875 7.4925 1.2125 8.235 1 9 C0.34 8.67 -0.32 8.34 -1 8 C-1.04241723 5.66705225 -1.04092937 3.33297433 -1 1 C-0.67 0.67 -0.34 0.34 0 0 Z " fill="#FA9E50" transform="translate(141,275)"/>
<path d="M0 0 C0.99 0 1.98 0 3 0 C1.70700306 2.88437779 0.34058637 4.87219421 -2 7 C-1.125 2.25 -1.125 2.25 0 0 Z " fill="#F3C57F" transform="translate(204,208)"/>
<path d="M0 0 C2.15377564 2.62198774 3.40072174 4.64404172 4 8 C3.01 8 2.02 8 1 8 C0.67 5.36 0.34 2.72 0 0 Z " fill="#FBE794" transform="translate(422,156)"/>
<path d="M0 0 C1.32 0 2.64 0 4 0 C2.70700306 2.88437779 1.34058637 4.87219421 -1 7 C-1 5.68 -1 4.36 -1 3 C-0.34 3 0.32 3 1 3 C0.67 2.01 0.34 1.02 0 0 Z " fill="#F5C689" transform="translate(142,156)"/>
</svg>
