<svg width="266" height="161" viewBox="0 0 266 161" fill="none" xmlns="http://www.w3.org/2000/svg">
<path d="M6.29209 114V28.0202H43.4045C49.7858 28.0202 55.3694 29.2797 60.1554 31.7986C64.9414 34.3175 68.6638 37.8581 71.3227 42.4201C73.9816 46.9822 75.311 52.314 75.311 58.4154C75.311 64.5728 73.9396 69.9046 71.1968 74.4107C68.4819 78.9168 64.6615 82.3873 59.7356 84.8223C54.8377 87.2573 49.1141 88.4747 42.5648 88.4747H20.3982V70.3384H37.8628C40.6056 70.3384 42.9427 69.8626 44.8738 68.911C46.833 67.9314 48.3304 66.546 49.366 64.7547C50.4295 62.9635 50.9613 60.8504 50.9613 58.4154C50.9613 55.9524 50.4295 53.8533 49.366 52.1181C48.3304 50.3548 46.833 49.0114 44.8738 48.0877C42.9427 47.1361 40.6056 46.6603 37.8628 46.6603H29.6343V114H6.29209ZM83.8754 114V28.0202H145.841V46.8283H107.218V61.6061H142.651V80.4141H107.218V95.1919H145.673V114H83.8754ZM157.418 114V28.0202H194.53C200.912 28.0202 206.495 29.1817 211.281 31.5047C216.067 33.8278 219.79 37.1723 222.449 41.5385C225.107 45.9047 226.437 51.1385 226.437 57.2399C226.437 63.3973 225.065 68.5891 222.323 72.8153C219.608 77.0416 215.787 80.2322 210.861 82.3873C205.964 84.5424 200.24 85.6199 193.691 85.6199H171.524V67.4836H188.989C191.732 67.4836 194.069 67.1477 196 66.476C197.959 65.7763 199.456 64.6708 200.492 63.1594C201.555 61.648 202.087 59.6749 202.087 57.2399C202.087 54.7769 201.555 52.7758 200.492 51.2364C199.456 49.6691 197.959 48.5216 196 47.7939C194.069 47.0382 191.732 46.6603 188.989 46.6603H180.76V114H157.418ZM207.797 74.5366L229.292 114H203.934L182.943 74.5366H207.797ZM259.729 28.0202V114H236.387V28.0202H259.729Z" fill="white"/>
<path d="M6.85668 126.055V138.699H3.42401V126.055H6.85668ZM19.9452 126.055V138.699H17.0805L12.5118 132.056H12.4377V138.699H9.00506V126.055H11.9191L16.4137 132.674H16.5125V126.055H19.9452ZM28.9064 130.007C28.8735 129.595 28.7191 129.274 28.4434 129.043C28.1717 128.813 27.7581 128.698 27.2024 128.698C26.8484 128.698 26.5583 128.741 26.3319 128.827C26.1096 128.91 25.945 129.023 25.838 129.167C25.731 129.311 25.6754 129.476 25.6713 129.661C25.6631 129.813 25.6898 129.951 25.7516 130.074C25.8174 130.194 25.9203 130.303 26.0603 130.402C26.2002 130.496 26.3792 130.583 26.5974 130.661C26.8155 130.739 27.0748 130.809 27.3753 130.871L28.4125 131.093C29.1122 131.241 29.7111 131.437 30.2091 131.68C30.7071 131.923 31.1146 132.209 31.4315 132.538C31.7484 132.863 31.981 133.229 32.1292 133.637C32.2815 134.044 32.3597 134.489 32.3638 134.97C32.3597 135.802 32.1518 136.506 31.7402 137.082C31.3286 137.658 30.74 138.096 29.9745 138.397C29.213 138.697 28.2973 138.848 27.2271 138.848C26.1282 138.848 25.1692 138.685 24.3501 138.36C23.5351 138.035 22.9013 137.535 22.4485 136.86C21.9999 136.18 21.7735 135.312 21.7694 134.254H25.0292C25.0498 134.641 25.1465 134.966 25.3194 135.23C25.4923 135.493 25.7351 135.693 26.0479 135.829C26.3648 135.964 26.7414 136.032 27.1777 136.032C27.544 136.032 27.8507 135.987 28.0976 135.896C28.3446 135.806 28.5319 135.68 28.6595 135.52C28.787 135.359 28.8529 135.176 28.857 134.97C28.8529 134.777 28.7891 134.608 28.6656 134.464C28.5463 134.316 28.3487 134.184 28.0729 134.069C27.7972 133.95 27.4247 133.838 26.9555 133.736L25.696 133.464C24.5765 133.221 23.6936 132.816 23.0474 132.248C22.4053 131.676 22.0863 130.896 22.0905 129.908C22.0863 129.105 22.3004 128.403 22.7325 127.802C23.1688 127.197 23.7718 126.726 24.5415 126.389C25.3153 126.051 26.2023 125.882 27.2024 125.882C28.2232 125.882 29.106 126.053 29.851 126.395C30.596 126.736 31.1702 127.218 31.5735 127.84C31.981 128.457 32.1868 129.179 32.1909 130.007H28.9064ZM33.8454 128.821V126.055H44.8349V128.821H41.0318V138.699H37.6485V128.821H33.8454ZM50.081 126.055V138.699H46.6483V126.055H50.081ZM51.8836 128.821V126.055H62.8731V128.821H59.07V138.699H55.6867V128.821H51.8836ZM72.1693 126.055H75.602V134.155C75.602 135.119 75.3715 135.952 74.9105 136.656C74.4536 137.356 73.8157 137.897 72.9966 138.28C72.1775 138.658 71.2268 138.848 70.1443 138.848C69.0536 138.848 68.0987 138.658 67.2796 138.28C66.4605 137.897 65.8226 137.356 65.3657 136.656C64.913 135.952 64.6866 135.119 64.6866 134.155V126.055H68.1193V133.859C68.1193 134.25 68.2057 134.6 68.3786 134.909C68.5514 135.213 68.7901 135.452 69.0947 135.625C69.4034 135.798 69.7533 135.884 70.1443 135.884C70.5394 135.884 70.8893 135.798 71.1938 135.625C71.4984 135.452 71.7371 135.213 71.91 134.909C72.0829 134.6 72.1693 134.25 72.1693 133.859V126.055ZM77.4093 128.821V126.055H88.3987V128.821H84.5956V138.699H81.2124V128.821H77.4093ZM90.2122 138.699V126.055H99.3248V128.821H93.6449V130.994H98.8556V133.76H93.6449V135.933H99.3001V138.699H90.2122ZM117.783 132.377C117.783 133.785 117.509 134.972 116.962 135.94C116.414 136.903 115.676 137.633 114.745 138.131C113.815 138.625 112.778 138.872 111.634 138.872C110.481 138.872 109.44 138.623 108.51 138.125C107.584 137.623 106.847 136.89 106.3 135.927C105.756 134.96 105.485 133.777 105.485 132.377C105.485 130.97 105.756 129.784 106.3 128.821C106.847 127.854 107.584 127.123 108.51 126.629C109.44 126.131 110.481 125.882 111.634 125.882C112.778 125.882 113.815 126.131 114.745 126.629C115.676 127.123 116.414 127.854 116.962 128.821C117.509 129.784 117.783 130.97 117.783 132.377ZM114.251 132.377C114.251 131.62 114.151 130.982 113.949 130.463C113.751 129.941 113.457 129.546 113.066 129.278C112.679 129.006 112.202 128.871 111.634 128.871C111.066 128.871 110.586 129.006 110.195 129.278C109.808 129.546 109.514 129.941 109.312 130.463C109.115 130.982 109.016 131.62 109.016 132.377C109.016 133.135 109.115 133.775 109.312 134.297C109.514 134.816 109.808 135.211 110.195 135.483C110.586 135.75 111.066 135.884 111.634 135.884C112.202 135.884 112.679 135.75 113.066 135.483C113.457 135.211 113.751 134.816 113.949 134.297C114.151 133.775 114.251 133.135 114.251 132.377ZM119.893 138.699V126.055H128.783V128.821H123.325V130.994H128.24V133.76H123.325V138.699H119.893ZM134.207 128.821V126.055H145.196V128.821H141.393V138.699H138.01V128.821H134.207ZM147.01 138.699V126.055H156.122V128.821H150.442V130.994H155.653V133.76H150.442V135.933H156.097V138.699H147.01ZM170.151 130.797H166.669C166.644 130.509 166.578 130.247 166.471 130.013C166.368 129.778 166.224 129.576 166.039 129.408C165.858 129.235 165.637 129.103 165.378 129.013C165.119 128.918 164.825 128.871 164.495 128.871C163.919 128.871 163.431 129.011 163.032 129.29C162.637 129.57 162.337 129.972 162.131 130.494C161.929 131.017 161.828 131.645 161.828 132.377C161.828 133.151 161.931 133.799 162.137 134.322C162.347 134.841 162.649 135.232 163.044 135.495C163.44 135.754 163.915 135.884 164.471 135.884C164.788 135.884 165.072 135.845 165.323 135.767C165.574 135.684 165.792 135.567 165.977 135.415C166.162 135.263 166.313 135.079 166.428 134.865C166.547 134.647 166.627 134.402 166.669 134.131L170.151 134.155C170.109 134.69 169.959 135.236 169.7 135.791C169.441 136.343 169.072 136.853 168.595 137.323C168.121 137.788 167.535 138.162 166.835 138.446C166.136 138.73 165.323 138.872 164.397 138.872C163.236 138.872 162.195 138.623 161.273 138.125C160.355 137.627 159.628 136.895 159.093 135.927C158.562 134.96 158.297 133.777 158.297 132.377C158.297 130.97 158.568 129.784 159.112 128.821C159.655 127.854 160.388 127.123 161.31 126.629C162.232 126.131 163.261 125.882 164.397 125.882C165.195 125.882 165.93 125.991 166.601 126.21C167.272 126.428 167.86 126.747 168.366 127.167C168.873 127.582 169.28 128.095 169.589 128.704C169.897 129.313 170.085 130.011 170.151 130.797ZM172.23 138.699V126.055H175.662V130.994H180.206V126.055H183.639V138.699H180.206V133.76H175.662V138.699H172.23ZM196.73 126.055V138.699H193.866L189.297 132.056H189.223V138.699H185.79V126.055H188.704L193.199 132.674H193.298V126.055H196.73ZM211.125 132.377C211.125 133.785 210.851 134.972 210.304 135.94C209.756 136.903 209.017 137.633 208.087 138.131C207.157 138.625 206.12 138.872 204.975 138.872C203.823 138.872 202.782 138.623 201.852 138.125C200.925 137.623 200.189 136.89 199.641 135.927C199.098 134.96 198.826 133.777 198.826 132.377C198.826 130.97 199.098 129.784 199.641 128.821C200.189 127.854 200.925 127.123 201.852 126.629C202.782 126.131 203.823 125.882 204.975 125.882C206.12 125.882 207.157 126.131 208.087 126.629C209.017 127.123 209.756 127.854 210.304 128.821C210.851 129.784 211.125 130.97 211.125 132.377ZM207.593 132.377C207.593 131.62 207.492 130.982 207.291 130.463C207.093 129.941 206.799 129.546 206.408 129.278C206.021 129.006 205.543 128.871 204.975 128.871C204.407 128.871 203.928 129.006 203.537 129.278C203.15 129.546 202.856 129.941 202.654 130.463C202.457 130.982 202.358 131.62 202.358 132.377C202.358 133.135 202.457 133.775 202.654 134.297C202.856 134.816 203.15 135.211 203.537 135.483C203.928 135.75 204.407 135.884 204.975 135.884C205.543 135.884 206.021 135.75 206.408 135.483C206.799 135.211 207.093 134.816 207.291 134.297C207.492 133.775 207.593 133.135 207.593 132.377ZM213.234 138.699V126.055H216.667V135.933H221.779V138.699H213.234ZM235.445 132.377C235.445 133.785 235.171 134.972 234.624 135.94C234.076 136.903 233.337 137.633 232.407 138.131C231.477 138.625 230.44 138.872 229.296 138.872C228.143 138.872 227.102 138.623 226.172 138.125C225.246 137.623 224.509 136.89 223.961 135.927C223.418 134.96 223.146 133.777 223.146 132.377C223.146 130.97 223.418 129.784 223.961 128.821C224.509 127.854 225.246 127.123 226.172 126.629C227.102 126.131 228.143 125.882 229.296 125.882C230.44 125.882 231.477 126.131 232.407 126.629C233.337 127.123 234.076 127.854 234.624 128.821C235.171 129.784 235.445 130.97 235.445 132.377ZM231.913 132.377C231.913 131.62 231.813 130.982 231.611 130.463C231.413 129.941 231.119 129.546 230.728 129.278C230.341 129.006 229.864 128.871 229.296 128.871C228.728 128.871 228.248 129.006 227.857 129.278C227.47 129.546 227.176 129.941 226.974 130.463C226.777 130.982 226.678 131.62 226.678 132.377C226.678 133.135 226.777 133.775 226.974 134.297C227.176 134.816 227.47 135.211 227.857 135.483C228.248 135.75 228.728 135.884 229.296 135.884C229.864 135.884 230.341 135.75 230.728 135.483C231.119 135.211 231.413 134.816 231.611 134.297C231.813 133.775 231.913 133.135 231.913 132.377ZM245.766 130.229C245.712 130.011 245.628 129.819 245.513 129.655C245.398 129.486 245.253 129.344 245.081 129.229C244.912 129.109 244.714 129.021 244.488 128.963C244.266 128.901 244.021 128.871 243.753 128.871C243.177 128.871 242.685 129.008 242.278 129.284C241.874 129.56 241.566 129.957 241.352 130.476C241.142 130.994 241.037 131.62 241.037 132.353C241.037 133.093 241.138 133.727 241.339 134.254C241.541 134.781 241.841 135.184 242.241 135.464C242.64 135.744 243.136 135.884 243.729 135.884C244.251 135.884 244.685 135.808 245.031 135.656C245.381 135.503 245.642 135.287 245.815 135.007C245.988 134.728 246.075 134.398 246.075 134.02L246.667 134.081H243.778V131.636H249.384V133.39C249.384 134.542 249.139 135.528 248.649 136.347C248.163 137.162 247.493 137.788 246.636 138.224C245.784 138.656 244.807 138.872 243.704 138.872C242.473 138.872 241.393 138.611 240.463 138.088C239.532 137.565 238.806 136.82 238.283 135.853C237.765 134.886 237.505 133.736 237.505 132.402C237.505 131.357 237.664 130.431 237.981 129.624C238.302 128.817 238.746 128.136 239.314 127.58C239.882 127.02 240.539 126.599 241.284 126.315C242.029 126.026 242.827 125.882 243.679 125.882C244.428 125.882 245.124 125.989 245.766 126.203C246.412 126.413 246.982 126.714 247.476 127.105C247.974 127.492 248.375 127.951 248.68 128.482C248.985 129.013 249.17 129.595 249.236 130.229H245.766ZM250.393 126.055H254.221L256.69 131.192H256.789L259.259 126.055H263.087L258.444 134.723V138.699H255.036V134.723L250.393 126.055Z" fill="white"/>
<path d="M45.4363 153.985C45.4363 153.073 45.5598 152.235 45.8067 151.469C46.0562 150.704 46.4513 149.991 46.9921 149.332H48.9924C48.7899 149.576 48.601 149.874 48.4257 150.225C48.2528 150.573 48.1022 150.954 47.9738 151.369C47.8478 151.784 47.749 152.215 47.6774 152.662C47.6058 153.107 47.57 153.547 47.57 153.985C47.57 154.567 47.6317 155.155 47.7552 155.748C47.8787 156.338 48.0478 156.886 48.2627 157.393C48.4775 157.896 48.7208 158.311 48.9924 158.637H46.9921C46.4513 157.978 46.0562 157.265 45.8067 156.5C45.5598 155.734 45.4363 154.896 45.4363 153.985ZM51.6012 157.778H49.3786L51.8827 150.191H54.698L57.2021 157.778H54.9796L53.32 152.281H53.2607L51.6012 157.778ZM51.1863 154.785H55.3648V156.326H51.1863V154.785ZM64.4969 150.191V157.778H62.7781L60.0369 153.792H59.9924V157.778H57.9328V150.191H59.6813L62.378 154.162H62.4373V150.191H64.4969ZM69.5199 157.778H67.2973L69.8015 150.191H72.6168L75.1209 157.778H72.8983L71.2387 152.281H71.1795L69.5199 157.778ZM69.1051 154.785H73.2835V156.326H69.1051V154.785ZM80.3412 150.191H82.4008V155.051C82.4008 155.629 82.2625 156.129 81.9859 156.552C81.7118 156.971 81.329 157.296 80.8376 157.526C80.3461 157.753 79.7757 157.867 79.1262 157.867C78.4718 157.867 77.8988 157.753 77.4074 157.526C76.9159 157.296 76.5332 156.971 76.259 156.552C75.9874 156.129 75.8516 155.629 75.8516 155.051V150.191H77.9112V154.874C77.9112 155.108 77.963 155.318 78.0668 155.503C78.1705 155.686 78.3137 155.829 78.4965 155.933C78.6817 156.037 78.8916 156.089 79.1262 156.089C79.3633 156.089 79.5732 156.037 79.7559 155.933C79.9387 155.829 80.0819 155.686 80.1856 155.503C80.2893 155.318 80.3412 155.108 80.3412 154.874V150.191ZM83.1722 151.851V150.191H89.7659V151.851H87.4841V157.778H85.4541V151.851H83.1722ZM97.5339 153.985C97.5339 154.829 97.3697 155.542 97.0412 156.122C96.7128 156.7 96.2695 157.138 95.7114 157.437C95.1532 157.733 94.5309 157.881 93.8444 157.881C93.1529 157.881 92.5281 157.732 91.97 157.433C91.4143 157.132 90.9723 156.692 90.6438 156.115C90.3179 155.534 90.1549 154.824 90.1549 153.985C90.1549 153.14 90.3179 152.429 90.6438 151.851C90.9723 151.271 91.4143 150.832 91.97 150.536C92.5281 150.237 93.1529 150.088 93.8444 150.088C94.5309 150.088 95.1532 150.237 95.7114 150.536C96.2695 150.832 96.7128 151.271 97.0412 151.851C97.3697 152.429 97.5339 153.14 97.5339 153.985ZM95.415 153.985C95.415 153.53 95.3545 153.147 95.2335 152.836C95.115 152.523 94.9384 152.285 94.7038 152.125C94.4716 151.962 94.1852 151.88 93.8444 151.88C93.5036 151.88 93.2159 151.962 92.9813 152.125C92.7491 152.285 92.5726 152.523 92.4516 152.836C92.333 153.147 92.2737 153.53 92.2737 153.985C92.2737 154.439 92.333 154.823 92.4516 155.137C92.5726 155.448 92.7491 155.685 92.9813 155.848C93.2159 156.008 93.5036 156.089 93.8444 156.089C94.1852 156.089 94.4716 156.008 94.7038 155.848C94.9384 155.685 95.115 155.448 95.2335 155.137C95.3545 154.823 95.415 154.439 95.415 153.985ZM105.051 150.191V157.778H103.332L100.591 153.792H100.546V157.778H98.4868V150.191H100.235L102.932 154.162H102.991V150.191H105.051ZM113.374 153.985C113.374 154.829 113.21 155.542 112.882 156.122C112.553 156.7 112.11 157.138 111.552 157.437C110.994 157.733 110.372 157.881 109.685 157.881C108.994 157.881 108.369 157.732 107.811 157.433C107.255 157.132 106.813 156.692 106.484 156.115C106.158 155.534 105.995 154.824 105.995 153.985C105.995 153.14 106.158 152.429 106.484 151.851C106.813 151.271 107.255 150.832 107.811 150.536C108.369 150.237 108.994 150.088 109.685 150.088C110.372 150.088 110.994 150.237 111.552 150.536C112.11 150.832 112.553 151.271 112.882 151.851C113.21 152.429 113.374 153.14 113.374 153.985ZM111.256 153.985C111.256 153.53 111.195 153.147 111.074 152.836C110.956 152.523 110.779 152.285 110.544 152.125C110.312 151.962 110.026 151.88 109.685 151.88C109.344 151.88 109.056 151.962 108.822 152.125C108.59 152.285 108.413 152.523 108.292 152.836C108.174 153.147 108.114 153.53 108.114 153.985C108.114 154.439 108.174 154.823 108.292 155.137C108.413 155.448 108.59 155.685 108.822 155.848C109.056 156.008 109.344 156.089 109.685 156.089C110.026 156.089 110.312 156.008 110.544 155.848C110.779 155.685 110.956 155.448 111.074 155.137C111.195 154.823 111.256 154.439 111.256 153.985ZM114.327 150.191H116.891L118.654 154.488H118.743L120.506 150.191H123.07V157.778H121.054V153.392H120.995L119.306 157.719H118.091L116.402 153.362H116.343V157.778H114.327V150.191ZM131.395 153.985C131.395 154.829 131.231 155.542 130.902 156.122C130.574 156.7 130.131 157.138 129.573 157.437C129.014 157.733 128.392 157.881 127.706 157.881C127.014 157.881 126.389 157.732 125.831 157.433C125.276 157.132 124.834 156.692 124.505 156.115C124.179 155.534 124.016 154.824 124.016 153.985C124.016 153.14 124.179 152.429 124.505 151.851C124.834 151.271 125.276 150.832 125.831 150.536C126.389 150.237 127.014 150.088 127.706 150.088C128.392 150.088 129.014 150.237 129.573 150.536C130.131 150.832 130.574 151.271 130.902 151.851C131.231 152.429 131.395 153.14 131.395 153.985ZM129.276 153.985C129.276 153.53 129.216 153.147 129.095 152.836C128.976 152.523 128.8 152.285 128.565 152.125C128.333 151.962 128.046 151.88 127.706 151.88C127.365 151.88 127.077 151.962 126.842 152.125C126.61 152.285 126.434 152.523 126.313 152.836C126.194 153.147 126.135 153.53 126.135 153.985C126.135 154.439 126.194 154.823 126.313 155.137C126.434 155.448 126.61 155.685 126.842 155.848C127.077 156.008 127.365 156.089 127.706 156.089C128.046 156.089 128.333 156.008 128.565 155.848C128.8 155.685 128.976 155.448 129.095 155.137C129.216 154.823 129.276 154.439 129.276 153.985ZM136.838 150.191H138.897V155.051C138.897 155.629 138.759 156.129 138.482 156.552C138.208 156.971 137.825 157.296 137.334 157.526C136.843 157.753 136.272 157.867 135.623 157.867C134.968 157.867 134.395 157.753 133.904 157.526C133.412 157.296 133.03 156.971 132.756 156.552C132.484 156.129 132.348 155.629 132.348 155.051V150.191H134.408V154.874C134.408 155.108 134.46 155.318 134.563 155.503C134.667 155.686 134.81 155.829 134.993 155.933C135.178 156.037 135.388 156.089 135.623 156.089C135.86 156.089 136.07 156.037 136.252 155.933C136.435 155.829 136.578 155.686 136.682 155.503C136.786 155.318 136.838 155.108 136.838 154.874V150.191ZM143.966 152.562C143.946 152.315 143.853 152.123 143.688 151.984C143.525 151.846 143.277 151.777 142.943 151.777C142.731 151.777 142.557 151.803 142.421 151.855C142.288 151.904 142.189 151.972 142.125 152.058C142.06 152.145 142.027 152.244 142.025 152.355C142.02 152.446 142.036 152.529 142.073 152.603C142.112 152.674 142.174 152.74 142.258 152.799C142.342 152.856 142.449 152.908 142.58 152.955C142.711 153.002 142.867 153.044 143.047 153.081L143.669 153.214C144.089 153.303 144.449 153.42 144.747 153.566C145.046 153.712 145.291 153.883 145.481 154.081C145.671 154.276 145.81 154.496 145.899 154.74C145.991 154.985 146.038 155.251 146.04 155.54C146.038 156.039 145.913 156.462 145.666 156.807C145.419 157.153 145.066 157.416 144.607 157.596C144.15 157.777 143.6 157.867 142.958 157.867C142.299 157.867 141.723 157.769 141.232 157.574C140.743 157.379 140.363 157.079 140.091 156.674C139.822 156.266 139.686 155.745 139.684 155.111H141.639C141.652 155.343 141.71 155.538 141.814 155.696C141.917 155.854 142.063 155.974 142.251 156.055C142.441 156.137 142.667 156.178 142.929 156.178C143.148 156.178 143.332 156.15 143.48 156.096C143.629 156.042 143.741 155.966 143.818 155.87C143.894 155.774 143.934 155.664 143.936 155.54C143.934 155.424 143.895 155.323 143.821 155.237C143.75 155.148 143.631 155.069 143.466 155C143.3 154.928 143.077 154.861 142.795 154.799L142.039 154.637C141.368 154.491 140.838 154.248 140.45 153.907C140.065 153.563 139.874 153.096 139.876 152.503C139.874 152.021 140.002 151.6 140.261 151.24C140.523 150.877 140.885 150.594 141.347 150.391C141.811 150.189 142.343 150.088 142.943 150.088C143.556 150.088 144.085 150.19 144.532 150.395C144.979 150.6 145.324 150.889 145.566 151.262C145.81 151.632 145.934 152.066 145.936 152.562H143.966ZM150.961 150.191V157.778H148.902V150.191H150.961ZM158.501 150.191V157.778H156.783L154.041 153.792H153.997V157.778H151.937V150.191H153.686L156.383 154.162H156.442V150.191H158.501ZM163.565 152.562C163.546 152.315 163.453 152.123 163.287 151.984C163.124 151.846 162.876 151.777 162.543 151.777C162.331 151.777 162.156 151.803 162.021 151.855C161.887 151.904 161.788 151.972 161.724 152.058C161.66 152.145 161.627 152.244 161.624 152.355C161.619 152.446 161.635 152.529 161.672 152.603C161.712 152.674 161.774 152.74 161.858 152.799C161.942 152.856 162.049 152.908 162.18 152.955C162.311 153.002 162.466 153.044 162.647 153.081L163.269 153.214C163.689 153.303 164.048 153.42 164.347 153.566C164.646 153.712 164.89 153.883 165.08 154.081C165.271 154.276 165.41 154.496 165.499 154.74C165.59 154.985 165.637 155.251 165.64 155.54C165.637 156.039 165.513 156.462 165.266 156.807C165.019 157.153 164.665 157.416 164.206 157.596C163.749 157.777 163.2 157.867 162.558 157.867C161.898 157.867 161.323 157.769 160.832 157.574C160.343 157.379 159.962 157.079 159.691 156.674C159.421 156.266 159.286 155.745 159.283 155.111H161.239C161.251 155.343 161.309 155.538 161.413 155.696C161.517 155.854 161.663 155.974 161.85 156.055C162.04 156.137 162.266 156.178 162.528 156.178C162.748 156.178 162.932 156.15 163.08 156.096C163.228 156.042 163.341 155.966 163.417 155.87C163.494 155.774 163.533 155.664 163.536 155.54C163.533 155.424 163.495 155.323 163.421 155.237C163.349 155.148 163.231 155.069 163.065 155C162.9 154.928 162.676 154.861 162.395 154.799L161.639 154.637C160.967 154.491 160.438 154.248 160.05 153.907C159.665 153.563 159.473 153.096 159.476 152.503C159.473 152.021 159.602 151.6 159.861 151.24C160.123 150.877 160.485 150.594 160.946 150.391C161.411 150.189 161.943 150.088 162.543 150.088C163.155 150.088 163.685 150.19 164.132 150.395C164.579 150.6 164.924 150.889 165.166 151.262C165.41 151.632 165.534 152.066 165.536 152.562H163.565ZM166.216 151.851V150.191H172.809V151.851H170.528V157.778H168.498V151.851H166.216ZM175.644 150.191V157.778H173.585V150.191H175.644ZM176.413 151.851V150.191H183.006V151.851H180.725V157.778H178.695V151.851H176.413ZM188.271 150.191H190.331V155.051C190.331 155.629 190.193 156.129 189.916 156.552C189.642 156.971 189.259 157.296 188.768 157.526C188.276 157.753 187.706 157.867 187.056 157.867C186.402 157.867 185.829 157.753 185.337 157.526C184.846 157.296 184.463 156.971 184.189 156.552C183.917 156.129 183.782 155.629 183.782 155.051V150.191H185.841V154.874C185.841 155.108 185.893 155.318 185.997 155.503C186.101 155.686 186.244 155.829 186.427 155.933C186.612 156.037 186.822 156.089 187.056 156.089C187.293 156.089 187.503 156.037 187.686 155.933C187.869 155.829 188.012 155.686 188.116 155.503C188.219 155.318 188.271 155.108 188.271 154.874V150.191ZM191.102 151.851V150.191H197.696V151.851H195.414V157.778H193.384V151.851H191.102ZM200.531 150.191V157.778H198.471V150.191H200.531ZM208.856 153.985C208.856 154.829 208.692 155.542 208.364 156.122C208.035 156.7 207.592 157.138 207.034 157.437C206.476 157.733 205.853 157.881 205.167 157.881C204.475 157.881 203.85 157.732 203.292 157.433C202.737 157.132 202.295 156.692 201.966 156.115C201.64 155.534 201.477 154.824 201.477 153.985C201.477 153.14 201.64 152.429 201.966 151.851C202.295 151.271 202.737 150.832 203.292 150.536C203.85 150.237 204.475 150.088 205.167 150.088C205.853 150.088 206.476 150.237 207.034 150.536C207.592 150.832 208.035 151.271 208.364 151.851C208.692 152.429 208.856 153.14 208.856 153.985ZM206.737 153.985C206.737 153.53 206.677 153.147 206.556 152.836C206.437 152.523 206.261 152.285 206.026 152.125C205.794 151.962 205.507 151.88 205.167 151.88C204.826 151.88 204.538 151.962 204.304 152.125C204.071 152.285 203.895 152.523 203.774 152.836C203.655 153.147 203.596 153.53 203.596 153.985C203.596 154.439 203.655 154.823 203.774 155.137C203.895 155.448 204.071 155.685 204.304 155.848C204.538 156.008 204.826 156.089 205.167 156.089C205.507 156.089 205.794 156.008 206.026 155.848C206.261 155.685 206.437 155.448 206.556 155.137C206.677 154.823 206.737 154.439 206.737 153.985ZM216.373 150.191V157.778H214.654L211.913 153.792H211.869V157.778H209.809V150.191H211.558L214.254 154.162H214.314V150.191H216.373ZM220.563 153.985C220.563 154.896 220.438 155.734 220.189 156.5C219.942 157.265 219.548 157.978 219.007 158.637H217.007C217.212 158.393 217.401 158.096 217.573 157.748C217.746 157.397 217.896 157.015 218.022 156.6C218.15 156.185 218.25 155.755 218.322 155.311C218.393 154.864 218.429 154.422 218.429 153.985C218.429 153.402 218.367 152.815 218.244 152.225C218.12 151.632 217.951 151.084 217.736 150.58C217.522 150.074 217.278 149.658 217.007 149.332H219.007C219.548 149.991 219.942 150.704 220.189 151.469C220.438 152.235 220.563 153.073 220.563 153.985Z" fill="white"/>
</svg>
