<svg width="858" height="334" viewBox="0 0 858 334" fill="none" xmlns="http://www.w3.org/2000/svg">
<g filter="url(#filter0_d_23_85)">
<path d="M57.1807 93.5V37.0093H33.6429V18.179H108.964L90.1336 37.0093H76.011V93.5H57.1807ZM117.349 93.5V18.179H136.179V46.4244H164.425V18.179H183.255V93.5H164.425V65.2546H136.179V93.5H117.349ZM191.64 93.5V18.179H248.131V37.0093H210.471V46.4244H248.131V65.2546H210.471V74.6698H248.131L266.961 93.5H191.64ZM365.526 93.5L356.111 84.0849V27.5941L365.526 18.179H422.017L412.602 37.0093H374.941V74.6698H403.186V55.8395L393.771 46.4244H422.017V93.5H365.526ZM430.402 93.5V18.179H486.893L496.308 27.5941V55.8395L486.893 65.2546H482.185L496.308 93.5H477.478L458.647 55.8395V46.4244H477.478V37.0093H449.232V93.5H430.402ZM504.693 93.5V18.179H561.184V37.0093H523.523V46.4244H561.184V65.2546H523.523V74.6698H561.184L580.014 93.5H504.693ZM583.692 93.5L621.352 18.179H640.183L677.843 93.5H654.305L649.598 84.0849H616.645L626.06 65.2546H640.183L630.768 46.4244L607.23 93.5H583.692ZM705.059 93.5V37.0093H681.521V18.179H756.842L738.012 37.0093H723.889V93.5H705.059ZM157.731 197.5L148.316 188.085V131.594L157.731 122.179H214.222L204.807 141.009H167.146V178.67H195.392V159.84L185.977 150.424H214.222V197.5H157.731ZM217.9 197.5L255.56 122.179H274.391L312.051 197.5H288.513L283.806 188.085H250.853L260.268 169.255H274.391L264.975 150.424L241.438 197.5H217.9ZM315.729 197.5V122.179H334.559V178.67H381.635L372.22 197.5H315.729ZM385.312 197.5L422.973 122.179H441.803L479.464 197.5H455.926L451.218 188.085H418.265L427.681 169.255H441.803L432.388 150.424L408.85 197.5H385.312ZM483.141 197.5V122.179H501.972V178.67H549.047L539.632 197.5H483.141ZM552.725 197.5L590.386 122.179H609.216L646.876 197.5H623.338L618.631 188.085H585.678L595.093 169.255H609.216L599.801 150.424L576.263 197.5H552.725Z" fill="white"/>
</g>
<path d="M276 3H17H4.5L31 61.5V124H107.5V195.5L127 213H702.5L641 117H755.5V48L795 3H349L332 20.5V48V94H296.5L281.5 66L276 3Z" stroke="white" stroke-width="5"/>
<path d="M591.913 234.493L592.115 233.867C593.715 233.622 594.657 232.809 594.942 231.426L595.188 231.091C596.844 230.242 597.98 229.399 598.596 228.561C599.254 227.667 600.503 226.756 602.346 225.83C604.237 224.896 605.231 224.422 605.328 224.407C605.619 224.363 606.558 224.666 608.146 225.316C609.782 225.959 610.785 227.492 611.155 229.916C611.422 231.661 611.185 233.359 610.445 235.01L610.79 237.264L610.733 237.868C609.998 238.576 609.686 239.293 609.797 240.02L609.886 240.602L610.353 242.688L608.995 247.435C608.23 247.948 607.87 248.351 607.915 248.641C607.944 248.835 608.175 249.048 608.607 249.28C609.081 249.455 609.354 249.786 609.428 250.27C609.51 250.804 609.516 251.82 609.448 253.318C609.559 253.4 609.664 253.434 609.761 253.419L610.051 253.375C610.186 252.957 610.529 252.607 611.082 252.325L611.731 251.704C611.746 251.156 611.857 250.743 612.062 250.463L612.935 250.33C613.322 250.271 613.457 249.853 613.339 249.078C613.294 248.787 614.172 247.388 615.971 244.881C617.764 242.325 618.83 240.699 619.17 240.002C619.558 239.298 619.989 238.711 620.463 238.242C620.93 237.724 621.178 237.24 621.209 236.788C621.239 236.337 621.443 235.885 621.82 235.43C622.245 234.968 622.574 234.521 622.805 234.089C623.03 233.608 623.382 233.158 623.864 232.737C624.345 232.316 624.79 231.653 625.197 230.747C625.653 229.834 626.663 228.49 628.227 226.713C628.48 226.426 628.753 225.938 629.045 225.249C629.336 224.559 629.943 223.822 630.864 223.036C631.827 222.194 632.699 221.243 633.479 220.181C634.3 219.063 635.85 218.331 638.129 217.982C639.437 217.782 640.794 218.22 642.198 219.295C643.644 220.315 644.467 221.479 644.667 222.788C644.77 223.466 644.73 224.018 644.547 224.443C644.357 224.819 644.037 225.488 643.589 226.449C643.189 227.403 642.747 227.917 642.262 227.991L640.886 227.755C640.106 228.817 639.231 229.422 638.262 229.57L636.836 229.49C636.052 230.205 635.397 230.628 634.872 230.758C634.346 230.887 633.93 231.249 633.623 231.841C633.365 232.426 633.026 232.801 632.604 232.964C632.175 233.079 631.724 233.371 631.25 233.841L630.176 234.6C629.876 235.886 628.971 236.942 627.46 237.768C626.967 238.439 626.538 239.199 626.171 240.048C626.194 240.194 625.981 240.425 625.533 240.741C625.134 241.05 624.74 241.557 624.352 242.261C623.963 242.965 623.623 243.34 623.333 243.384L622.678 243.484C622.357 243.98 622.17 244.703 622.117 245.653C622.063 246.604 621.36 247.356 620.006 247.91C619.827 248.037 619.592 248.445 619.3 249.134C619.001 249.775 618.514 250.321 617.839 250.771C617.718 251.931 617.225 252.924 616.359 253.751L615.72 255.411C615.552 255.933 615.141 256.491 614.488 257.087C613.876 257.627 613.553 257.949 613.519 258.054C613.486 258.158 613.271 258.861 612.874 260.161C612.47 261.414 611.93 262.265 611.255 262.715C610.628 263.158 610.035 263.819 609.475 264.699C608.907 265.53 608.381 265.982 607.896 266.056C606.2 266.315 604.171 265.211 601.81 262.745C599.449 260.278 598.212 258.681 598.101 257.954C597.687 255.239 597.728 253.075 598.226 251.461C598.764 249.791 599.003 248.267 598.941 246.887C598.871 245.459 598.953 244.207 599.185 243.129L599.277 240.809L599.703 239.702C599.983 239.262 600.174 238.563 600.276 237.605L600.462 236.386C600.328 235.514 599.995 235.118 599.462 235.2C598.783 235.303 598.268 235.829 597.917 236.775L597.67 237.111C596.414 237.005 595.762 236.956 595.713 236.963C595.374 237.015 595.174 237.814 595.112 239.362C594.992 239.876 594.556 240.265 593.802 240.529C593.049 240.793 592.319 241.698 591.613 243.245L591.294 243.591C590.872 243.755 590.596 243.896 590.466 244.015C589.957 245.234 589.558 245.865 589.267 245.91C588.976 245.954 588.62 245.736 588.2 245.254C587.82 244.717 587.365 244.34 586.836 244.123C586.307 243.906 586.009 243.58 585.942 243.144C585.772 242.029 586.644 240.432 588.559 238.354C588.985 237.892 589.22 237.484 589.265 237.13C589.31 236.776 589.931 236.457 591.128 236.175C591.307 236.049 591.569 235.488 591.913 234.493ZM681.334 245.089L678.372 248.592C678.149 248.428 677.94 248.361 677.746 248.39C677.262 248.464 676.722 248.993 676.128 249.977C675.583 250.953 675.165 251.463 674.874 251.508L674.125 251.474C673.054 252.58 672.263 253.246 671.752 253.473C671.241 253.7 670.627 254.067 669.911 254.573C669.243 255.072 668.597 255.394 667.975 255.538C667.4 255.676 666.949 255.968 666.62 256.415C666.284 256.813 665.365 257.128 663.862 257.357L662.677 257.389C662.091 257.777 661.701 257.985 661.507 258.015C661.119 258.074 660.678 257.943 660.182 257.622C659.679 257.252 659.158 257.084 658.617 257.117C658.125 257.142 657.564 256.881 656.934 256.332C656.305 255.783 655.729 255.425 655.208 255.256C654.734 255.081 654.319 254.797 653.961 254.405L652.81 253.688C651.897 253.232 650.934 252.288 649.922 250.855C648.909 249.423 648.336 248.27 648.203 247.398L648.159 247.107L648.093 245.703L647.703 244.125C647.867 243.902 648.047 243.453 648.241 242.778L647.886 240.451L648.742 234.368C648.802 234.111 648.56 233.825 648.016 233.512C647.643 234.313 647.225 234.823 646.762 235.043C646.299 235.262 646.012 235.653 645.9 236.216C645.836 236.771 645.61 237.079 645.222 237.138L644.305 236.98C644.223 237.092 644.082 237.635 643.884 238.607C643.678 239.532 643.163 240.057 642.339 240.183C641.466 240.316 640.978 240.043 640.874 239.365L640.82 238.034L640.106 236.283C640.047 235.895 640.32 235.084 640.925 233.851C641.523 232.569 642.126 231.807 642.734 231.565C643.383 231.268 643.87 230.722 644.195 229.928C644.561 229.079 645.438 228.002 646.827 226.699C647.67 226.372 648.325 225.627 648.792 224.464C649.389 223.827 650.195 223.257 651.21 222.755C652.273 222.246 653.023 221.635 653.46 220.923C653.938 220.156 655.43 218.886 657.937 217.114C660.486 215.286 662.39 214.276 663.65 214.083C664.038 214.024 664.557 213.846 665.206 213.548C665.847 213.202 666.448 212.912 667.007 212.678C667.559 212.395 668.125 212.036 668.703 211.6C669.274 211.116 669.753 210.844 670.141 210.785L672.361 211.19C673.979 211.389 674.972 211.56 675.341 211.702C675.453 211.784 675.971 211.928 676.895 212.134C677.861 212.285 678.845 212.556 679.847 212.948C680.898 213.333 681.535 214.253 681.757 215.707C681.118 217.045 680.806 217.763 680.821 217.859C680.85 218.053 681.452 218.259 682.626 218.477C683.125 219.144 683.851 220.001 684.805 221.046L685.993 223.468L687.049 229.409L686.993 230.012C686.534 230.579 686.315 230.935 686.337 231.08L686.778 232.501L686.507 234.626C686.458 235.278 686.279 235.727 685.969 235.973C685.659 236.219 685.478 236.494 685.426 236.8L685.078 237.448C685.003 237.609 684.852 238.078 684.624 238.857C684.437 239.58 684.179 240.165 683.85 240.612C683.522 241.059 683.35 241.557 683.334 242.105C683.319 242.653 683.135 243.078 682.785 243.379C682.434 243.681 682.184 243.992 682.034 244.312C681.926 244.577 681.693 244.836 681.334 245.089ZM659.01 250.434L659.556 252.062L659.724 252.185L660.887 252.008L661.273 252.098C662.272 252.143 663.014 252.129 663.499 252.055C665.001 251.826 666.134 251.281 666.895 250.42C667.698 249.504 668.365 249.005 668.899 248.924C669.432 248.842 669.813 248.412 670.041 247.633C670.318 246.847 670.504 246.446 670.601 246.431L671.619 246.276L671.888 246.086C671.718 244.971 672.08 244.097 672.976 243.464C673.92 242.824 674.526 242.086 674.795 241.251C675.106 240.361 675.498 239.681 675.972 239.212C676.439 238.694 676.717 238.081 676.807 237.373L677.256 236.411C677.42 236.188 677.461 235.809 677.38 235.276L678.361 232.447C678.467 231.191 678.468 230.224 678.364 229.545C678.209 228.527 677.554 227.809 676.398 227.39C675.291 226.964 674.608 225.902 674.349 224.206C674.179 223.091 674.581 221.988 675.555 220.896C676.57 219.749 677.063 219.078 677.033 218.884C676.989 218.594 676.821 218.47 676.531 218.515C676.385 218.537 675.857 218.816 674.947 219.352C674.711 220.083 673.128 221.242 670.195 222.831C669.103 222.502 668.509 222.345 668.412 222.359C668.121 222.404 667.875 222.739 667.673 223.365C667.471 223.991 667.243 224.448 666.989 224.735L666.044 224.879C665.947 224.894 665.68 225.257 665.243 225.969C664.806 226.68 664.176 227.099 663.351 227.225L662.612 228.231C662.779 228.999 662.417 229.873 661.525 230.853L660.869 231.92C660.473 232.576 659.947 233.351 659.29 234.245L658.481 237.717C658.14 239.059 658.018 240.045 658.114 240.675C658.013 240.988 657.722 241.355 657.241 241.776C656.8 242.14 656.617 242.565 656.691 243.05C656.706 243.147 656.913 243.363 657.311 243.699C657.71 244.035 657.924 244.3 657.954 244.494L657.807 245.484L657.927 248.219L659.01 250.434ZM702.979 231.886L702.902 231.377C702.798 230.698 702.765 230.158 702.803 229.755C702.393 229.024 702.141 228.343 702.044 227.713C702.029 227.616 702.168 226.9 702.46 225.566L702.77 223.212C702.976 222.288 703.1 221.797 703.141 221.742C702.732 221.01 702.52 220.596 702.505 220.499C702.335 219.385 702.509 218.415 703.028 217.592C703.547 216.769 703.925 215.669 704.161 214.294L704.938 209.636L706.449 203.453C706.475 203.3 706.634 202.879 706.925 202.189C707.265 201.492 707.523 200.907 707.699 200.434C707.916 199.905 708.2 199.167 708.551 198.22L709.256 197.964C709.42 197.74 709.488 197.532 709.458 197.338C709.443 197.241 709.287 196.868 708.989 196.219L710.89 191.613L711.939 188.253C712.298 187.355 712.75 186.74 713.295 186.409C713.99 184.467 714.672 183.247 715.34 182.748C715.49 181.782 715.871 180.707 716.484 179.522L717.843 179.166C717.982 178.45 718.147 177.904 718.337 177.528L718.26 176.051C718.305 176.342 718.415 176.251 718.591 175.778C718.759 175.256 718.989 174.328 719.281 172.993L720.9 170.439L721.326 169.333C721.517 168.956 721.805 168.243 722.19 167.192C722.873 166.79 723.397 166.164 723.763 165.314L725.101 163.845C724.923 163.326 725.323 162.05 726.302 160.015C727.074 159.55 727.759 158.999 728.356 158.362L729.33 157.916C729.071 156.219 729.499 154.963 730.614 154.148L731.398 153.433C732.114 152.927 732.521 152.666 732.618 152.651L733.105 152.428C733.657 152.145 734.321 151.945 735.096 151.826C736.89 151.552 738.617 151.983 740.279 153.118C741.933 154.205 742.89 155.596 743.149 157.293C743.253 157.971 742.997 158.73 742.381 159.568L742.179 160.194C741.907 162.964 741.626 164.371 741.335 164.416C741.141 164.445 740.897 164.631 740.602 164.974C740.75 166.588 740.79 167.5 740.722 167.709C739.872 167.987 739.602 169.145 739.913 171.181C739.861 171.486 739.575 172.051 739.056 172.874C738.578 173.642 738.266 174.682 738.119 175.994C737.965 177.258 737.694 177.919 737.306 177.978L736.506 178.1L736.891 179.158C736.994 179.836 736.759 180.567 736.184 181.349C735.65 182.076 735.366 182.814 735.331 183.563C735.297 184.312 734.849 185.274 733.986 186.447L733.437 187.722C733.22 188.251 732.91 188.819 732.507 189.426C732.103 190.034 731.817 190.921 731.648 192.087L730.291 195.866C729.345 198.442 728.525 199.733 727.832 199.739C727.684 201.696 727.56 202.832 727.459 203.145C727.358 203.458 727.06 203.776 726.564 204.1C726.067 204.424 725.722 204.923 725.527 205.598C725.325 206.224 725.077 206.708 724.782 207.051L723.884 209.941C723.16 210.399 722.699 211.114 722.501 212.087C721.755 212.4 721.37 213.128 721.346 214.273C721.182 214.496 721.006 214.969 720.819 215.692L718.663 218.626C717.495 219.747 716.955 220.921 717.043 222.148C717.124 223.326 716.583 224.004 715.419 224.182C714.595 224.307 713.328 224.129 711.617 223.646L711.472 223.669C711.43 224.369 711.205 225.173 710.798 226.078L711.389 227.997C711.426 228.239 711.271 229.825 710.925 232.755C711.424 233.423 711.696 233.903 711.74 234.194L711.839 235.815L712.503 237.723C712.989 239.286 713.693 239.997 714.614 239.856L716.404 239.88C716.501 239.865 717.051 239.409 718.055 238.512L720.523 236.647C720.62 236.632 720.676 236.673 720.691 236.77C721.205 236.89 721.608 236.927 721.899 236.883C722.383 236.809 722.567 236.384 722.448 235.608L722.304 234.663C722.52 234.134 722.815 233.791 723.188 233.635C723.61 233.472 723.964 233.194 724.252 232.803C724.539 232.412 724.78 232.201 724.974 232.172L725.701 232.061C726.428 231.95 726.662 231.046 726.403 229.349C726.582 229.223 726.795 228.992 727.041 228.656L727.914 228.523C728.301 228.464 728.643 227.94 728.939 226.953C729.275 225.909 729.526 225.276 729.69 225.052C730.548 224.822 731.131 224.584 731.441 224.338C732.563 221.29 733.536 219.702 734.36 219.577L734.796 219.51C735.502 218.608 735.834 217.863 735.794 217.274C735.794 216.629 735.974 216.18 736.332 215.927C736.739 215.666 737.09 215.365 737.384 215.022C737.679 214.679 737.875 214.501 737.972 214.486C738.699 214.375 739.104 214.586 739.185 215.119L739.278 217.188L740.12 219.292C740.15 219.486 739.991 219.907 739.643 220.555C739.337 221.148 739.236 221.783 739.339 222.462C739.554 223.868 739.427 224.656 738.957 224.827C738.487 224.998 738.127 225.4 737.876 226.034C737.667 226.611 737.236 227.198 736.582 227.794C735.922 228.341 735.465 229.081 735.21 230.013L734.018 230.492L733.358 231.04C733.006 232.631 732.516 233.649 731.889 234.092C731.311 234.527 730.667 235.667 729.957 237.512C729.811 237.534 729.746 237.594 729.761 237.691L728.575 237.723C728.257 238.565 727.891 239.093 727.477 239.305C727.063 239.517 726.744 239.863 726.52 240.344C726.288 240.776 725.807 241.197 725.076 241.606C724.393 242.008 723.984 242.418 723.85 242.835C723.715 243.253 723.458 243.515 723.077 243.623C722.697 243.731 722.363 243.98 722.075 244.371C721.78 244.714 721.512 244.904 721.269 244.941C721.172 244.956 720.826 244.959 720.229 244.951L719.938 244.995C719.203 245.703 718.569 246.097 718.036 246.179C717.406 246.275 716.96 246.443 716.699 246.681C716.378 246.531 715.895 246.456 715.251 246.456C714.654 246.448 713.938 246.309 713.103 246.04C712.309 246.359 711.815 246.534 711.621 246.564C710.797 246.69 709.632 246.049 708.128 244.642C706.616 243.186 705.741 241.683 705.504 240.132C705.497 240.083 705.15 239.764 704.465 239.174C703.821 238.529 703.436 237.794 703.31 236.97L703.199 236.243L703.211 235.348L703 233.966L703.078 233.508C703.791 233.3 704.139 233.147 704.125 233.05L702.979 231.886ZM714.796 210.362L716.19 209.256C716.265 208.451 716.755 207.434 717.658 206.205C718.554 204.927 719.221 204.254 719.657 204.188L720.239 204.099C720.187 203.76 720.208 203.409 720.301 203.048C720.395 202.686 720.397 202.214 720.308 201.633C720.264 201.342 720.796 200.442 721.905 198.933L722.287 197.536C722.53 196.209 723.462 195 725.081 193.909C725.545 192.4 725.947 191.619 726.286 191.567L726.845 191.333C726.928 190.576 727.216 189.863 727.709 189.192L727.933 188.711L727.755 187.548C727.74 187.451 727.996 187.015 728.523 186.24C729.09 185.409 729.475 184.681 729.677 184.055C729.872 183.38 730.185 182.836 730.618 182.423C731.1 182.002 731.371 181.341 731.431 180.438L732.572 180.115C732.476 179.485 732.462 179.066 732.529 178.857L732.563 178.108C732.717 177.489 733.332 175.832 734.408 173.138L735.161 170.27C735.116 169.979 735.258 169.61 735.587 169.163C735.957 168.66 736.082 168.021 735.964 167.245L736.179 164.757C736.009 163.642 735.729 163.114 735.342 163.173C734.909 163.587 734.485 163.899 734.071 164.111C733.706 164.316 733.451 165.248 733.308 166.907C731.905 167.468 731.164 168.301 731.085 169.404C731.047 170.452 730.598 171.413 729.74 172.289L729.364 173.239C729.349 173.787 728.973 174.415 728.238 175.122C727.503 175.83 726.879 176.942 726.367 178.459C724.454 182.174 723.395 184.171 723.19 184.451L722.596 185.434L721.483 185.455C721.795 186.201 721.959 186.623 721.974 186.72C722.018 187.011 721.917 187.324 721.671 187.659C721.417 187.946 721.247 188.294 721.161 188.704C721.075 189.114 720.854 189.619 720.499 190.219C720.137 190.77 719.851 191.657 719.641 192.88C719.472 194.047 719.257 194.749 718.995 194.988L717.955 194.998C717.384 195.482 717.128 195.918 717.188 196.306L717.561 197.29C717.591 197.484 717.483 197.749 717.236 198.084C717.031 198.363 716.866 198.909 716.742 199.722C716.618 200.535 716.194 201.815 715.469 203.563C714.736 205.262 714.216 207.053 713.909 208.935C713.642 210.762 713.279 211.958 712.82 212.524C712.932 212.607 713.084 212.633 713.278 212.603C713.909 212.507 714.415 211.76 714.796 210.362ZM757.309 236.831L758.846 237.638C759.584 237.922 760.053 238.718 760.253 240.027C760.298 240.318 760.228 240.676 760.045 241.1C759.862 241.525 759.707 241.971 759.58 242.437C758.394 246.04 756.662 248.016 754.384 248.365C753.657 248.476 752.417 247.995 750.666 246.923C748.915 245.852 747.74 244.816 747.141 243.816C746.59 242.809 746.147 242.182 745.812 241.936C745.525 241.682 745.367 241.458 745.337 241.264C745.256 240.731 745.361 240.119 745.652 239.43C745.992 238.733 746.189 237.909 746.242 236.959C746.288 235.96 746.689 235.179 747.447 234.617C748.245 233.999 748.805 233.442 749.126 232.947C749.447 232.451 749.923 232.155 750.553 232.059C750.941 232 751.355 232.11 751.794 232.39C752.234 232.67 752.823 232.952 753.561 233.236C754.34 233.465 755.185 234.129 756.098 235.23L757.309 236.831ZM807.558 193.14L807.07 194.331C807.036 194.435 806.523 194.811 805.531 195.459C804.538 196.106 803.335 197.481 801.919 199.582C800.553 201.676 799.424 202.89 798.532 203.225C798.435 203.24 798.226 203.495 797.905 203.99C797.576 204.437 797.164 204.823 796.668 205.147C796.22 205.463 795.679 206.141 795.044 207.181C794.402 208.172 793.881 208.822 793.482 209.131C793.131 209.432 792.809 210.25 792.517 211.585C791.632 213.258 790.719 214.265 789.779 214.607C789.615 214.831 789.566 215.161 789.633 215.597C789.951 217.681 790.959 218.594 792.656 218.335C792.849 218.305 793.084 218.22 793.36 218.078C793.636 217.937 794.276 217.74 795.279 217.487C796.323 217.179 797.017 216.85 797.361 216.5C797.704 216.15 798.385 215.897 799.403 215.741L799.693 215.697L801.243 215.609L806.104 213.825L807.056 213.233L809.477 213.012C809.962 212.938 810.514 212.655 811.134 212.163C811.794 211.616 812.311 211.264 812.684 211.108C812.766 210.996 812.855 210.933 812.952 210.918L814.938 210.764L817.349 209.502L820.7 208.544C821.17 208.373 822.762 208.08 825.477 207.665C825.962 207.591 826.849 207.555 828.139 207.556C828.251 207.639 828.476 207.654 828.816 207.602C829.01 207.572 829.556 207.414 830.455 207.128C831.402 206.835 832.263 206.629 833.039 206.51C836.335 206.007 838.244 206.484 838.764 207.942L840.864 210.97C841.672 212.037 842.105 212.764 842.164 213.152L842.264 213.807L842.056 214.88L842.357 215.876C842.587 217.379 842.381 218.303 841.739 218.649C841.098 218.995 840.654 219.336 840.407 219.671L840.262 219.693C838.856 219.908 837.507 219.196 836.215 217.558L835.398 218.055L834.011 217.746C833.661 218.048 833.073 218.262 832.249 218.387C831.958 218.432 831.193 218.127 829.952 217.473L829.661 217.518C829.37 217.562 828.973 217.722 828.469 217.998C827.966 218.273 827.617 218.425 827.423 218.455C827.326 218.47 827.097 218.431 826.735 218.337C826.422 218.236 826.169 218.2 825.975 218.23C825.587 218.289 824.589 218.739 822.981 219.58L813.13 222.797L811.268 222.783C809.959 222.983 808.827 223.528 807.872 224.418C807.439 224.832 807.125 225.053 806.931 225.083L804.443 224.868L794.032 228.318C793.749 228.411 793.327 228.253 792.769 227.842C792.258 227.424 791.906 227.229 791.712 227.259C791.63 227.371 791.523 227.809 791.392 228.573C791.253 229.289 790.724 229.717 789.803 229.858C787.621 230.191 785.867 229.913 784.541 229.024C784.429 228.942 784.204 228.927 783.864 228.979L782.355 228.838C782.325 228.644 782.009 228.196 781.405 227.494L780.451 225.631L779.356 224.31C778.746 223.56 778.337 222.506 778.129 221.149C777.507 217.077 777.779 214.308 778.943 212.84C780.149 211.316 780.767 210.329 780.797 209.878C781.676 207.511 783.635 204.583 786.673 201.093L789.322 197.489C789.404 197.377 789.535 197.258 789.714 197.131C789.886 196.956 790.626 196.124 791.937 194.634C793.295 193.136 794.301 192.09 794.954 191.494C795.607 190.898 796.531 189.963 797.725 188.689L800.816 185.539C802.145 183.847 804.333 181.777 807.382 179.327L807.752 178.824L809.212 178.154L809.94 177.076C810.627 176.376 811.528 175.94 812.642 175.77L817.915 171.319L820.512 169.806C821.407 169.173 822.388 168.452 823.455 167.645C824.564 166.781 825.77 166.076 827.076 165.529L828.917 164.429L830.171 162.898C830.515 162.548 831.21 162.07 832.259 161.463C833.348 160.801 834.146 160.183 834.654 159.609C835.21 159.028 836.236 158.276 837.732 157.353C839.221 156.381 839.861 155.217 839.654 153.86C839.513 152.939 838.899 152.487 837.81 152.504C836.77 152.514 835.929 152.37 835.288 152.071C834.696 151.765 834.351 151.619 834.254 151.634L830.277 152.39L829.288 152.244C828.281 152.15 827.632 152.125 827.342 152.169C826.711 152.265 826.075 152.486 825.434 152.833C824.785 153.13 824.266 153.309 823.879 153.368L821.525 153.058C821.062 153.277 819.855 153.982 817.904 155.173L817.272 155.419C816.943 155.866 816.634 156.112 816.343 156.156L814.43 156.299L811.319 158.337C810.632 159.038 809.988 159.533 809.388 159.823C808.836 160.106 808.367 160.45 807.983 160.856C807.599 161.262 807.212 161.495 806.825 161.554L804.772 161.272C804.482 161.317 804.183 161.635 803.877 162.227C803.563 162.771 803.261 163.066 802.97 163.11C800.885 163.428 799.532 161.552 798.91 157.48C798.695 156.074 799.128 154.52 800.207 152.817C801.327 151.059 802.469 150.091 803.632 149.913L809.182 148.247C809.376 148.217 810.045 148.214 811.189 148.237L811.48 148.193L813.288 146.875C813.84 146.592 814.213 146.436 814.407 146.407L816.683 146.208L821.88 144.67L828.306 144.358C830.282 144.304 831.544 144.285 832.092 144.3L833.569 144.223C835.556 143.92 838.131 145.511 841.292 148.996C841.545 149.354 842.305 150.106 843.571 151.252C844.886 152.391 845.71 154.051 846.044 156.232C846.207 157.298 845.855 158.567 844.988 160.039L844.831 160.956C844.778 161.262 844.149 162.499 842.942 164.668C841.784 166.829 840.405 168.031 838.806 168.276L837.257 168.364C836.772 168.438 836.455 168.635 836.305 168.955L831.469 173.34C830.625 174.313 829.504 175.253 828.105 176.161L827.198 177.044L825.861 177.546C825.682 177.672 825.275 178.255 824.64 179.295C823.998 180.286 823.458 180.815 823.022 180.881L821.037 181.036C820.455 181.125 819.647 181.843 818.613 183.192C817.62 184.484 816.58 185.635 815.494 186.645L814.531 188.131C814.255 188.272 813.589 188.622 812.533 189.18C811.519 189.683 810.81 190.237 810.407 190.845C810.052 191.445 809.505 191.925 808.766 192.286C808.028 192.647 807.625 192.931 807.558 193.14Z" fill="#CD0000"/>
<defs>
<filter id="filter0_d_23_85" x="33.6428" y="18.179" width="730.199" height="182.321" filterUnits="userSpaceOnUse" color-interpolation-filters="sRGB">
<feFlood flood-opacity="0" result="BackgroundImageFix"/>
<feColorMatrix in="SourceAlpha" type="matrix" values="0 0 0 0 0 0 0 0 0 0 0 0 0 0 0 0 0 0 127 0" result="hardAlpha"/>
<feOffset dx="7" dy="3"/>
<feComposite in2="hardAlpha" operator="out"/>
<feColorMatrix type="matrix" values="0 0 0 0 0 0 0 0 0 0 0 0 0 0 0 0 0 0 1 0"/>
<feBlend mode="normal" in2="BackgroundImageFix" result="effect1_dropShadow_23_85"/>
<feBlend mode="normal" in="SourceGraphic" in2="effect1_dropShadow_23_85" result="shape"/>
</filter>
</defs>
</svg>
